<?xml version="1.0" encoding="UTF-8"?>
<svg xmlns="http://www.w3.org/2000/svg" xmlns:xlink="http://www.w3.org/1999/xlink" width="300px" height="61px" viewBox="0 0 294 61" version="1.1">
<g id="surface1">
<path style=" stroke:none;fill-rule:nonzero;fill:rgb(11.372549%,11.372549%,11.372549%);fill-opacity:1;" d="M 72.808594 19.40625 C 75.863281 19.113281 78.90625 20.105469 81.207031 22.140625 C 83.089844 24.191406 84.242188 26.808594 84.484375 29.585938 L 87.003906 48.160156 L 80.113281 48.160156 L 79.339844 41.972656 C 78.332031 43.996094 76.792969 45.707031 74.886719 46.917969 C 73.046875 48.109375 70.902344 48.738281 68.710938 48.726562 C 67.40625 48.761719 66.109375 48.539062 64.890625 48.074219 C 63.855469 47.691406 62.910156 47.097656 62.117188 46.328125 C 61.359375 45.597656 60.78125 44.707031 60.417969 43.71875 C 60.039062 42.667969 59.84375 41.558594 59.851562 40.4375 C 59.851562 39.125 60.214844 37.835938 60.898438 36.714844 C 61.5 35.683594 62.324219 34.796875 63.316406 34.128906 C 64.414062 33.433594 65.621094 32.929688 66.886719 32.636719 C 68.261719 32.3125 69.671875 32.152344 71.085938 32.152344 C 72.359375 32.160156 73.628906 32.320312 74.863281 32.636719 C 76.046875 32.921875 77.1875 33.351562 78.265625 33.917969 L 77.699219 30.152344 C 77.527344 28.167969 76.886719 26.25 75.832031 24.558594 C 74.839844 23.257812 73.257812 22.550781 71.632812 22.6875 C 70.914062 22.675781 70.203125 22.796875 69.53125 23.042969 C 69.015625 23.257812 68.554688 23.589844 68.1875 24.011719 C 67.839844 24.417969 67.574219 24.890625 67.410156 25.398438 C 67.222656 25.945312 67.070312 26.5 66.949219 27.0625 C 66.507812 29.164062 65.414062 30.257812 63.691406 30.257812 C 62.855469 30.261719 62.039062 29.980469 61.382812 29.457031 C 60.679688 28.851562 60.308594 27.945312 60.375 27.019531 C 60.382812 25.941406 60.738281 24.894531 61.382812 24.03125 C 62.128906 23.011719 63.070312 22.152344 64.15625 21.507812 C 65.394531 20.777344 66.730469 20.226562 68.125 19.867188 C 69.660156 19.507812 71.234375 19.355469 72.808594 19.40625 Z M 78.539062 36.230469 C 77.664062 35.820312 76.75 35.496094 75.808594 35.265625 C 74.898438 35.019531 73.960938 34.890625 73.015625 34.886719 C 72.226562 34.882812 71.4375 34.964844 70.664062 35.136719 C 69.957031 35.289062 69.28125 35.566406 68.671875 35.957031 C 68.082031 36.320312 67.601562 36.835938 67.285156 37.453125 C 66.925781 38.152344 66.753906 38.9375 66.78125 39.722656 C 66.722656 40.964844 67.179688 42.175781 68.039062 43.066406 C 69.089844 43.976562 70.457031 44.429688 71.839844 44.332031 C 73.320312 44.316406 74.75 43.796875 75.894531 42.859375 C 77.191406 41.816406 78.214844 40.472656 78.875 38.945312 Z M 78.539062 36.230469 "/>
<path style=" stroke:none;fill-rule:nonzero;fill:rgb(11.372549%,11.372549%,11.372549%);fill-opacity:1;" d="M 105.335938 48.683594 C 103.472656 48.710938 101.617188 48.382812 99.875 47.714844 C 98.304688 47.113281 96.875 46.1875 95.675781 45.003906 C 94.464844 43.804688 93.507812 42.375 92.863281 40.796875 C 92.171875 39.011719 91.828125 37.113281 91.855469 35.203125 C 91.835938 33.128906 92.214844 31.074219 92.96875 29.144531 C 93.6875 27.285156 94.75 25.582031 96.097656 24.117188 C 97.410156 22.644531 99.011719 21.457031 100.800781 20.625 C 102.683594 19.789062 104.726562 19.375 106.785156 19.40625 C 108.210938 19.382812 109.632812 19.601562 110.984375 20.054688 C 112.160156 20.464844 113.253906 21.078125 114.21875 21.867188 C 115.074219 22.578125 115.789062 23.449219 116.320312 24.429688 C 116.808594 25.335938 117.066406 26.347656 117.074219 27.375 C 117.21875 28.539062 116.851562 29.703125 116.066406 30.574219 C 115.421875 31.121094 114.601562 31.421875 113.757812 31.414062 C 112.933594 31.4375 112.132812 31.152344 111.511719 30.617188 C 110.804688 29.933594 110.449219 28.964844 110.542969 27.988281 C 110.542969 27.355469 110.460938 26.722656 110.292969 26.113281 C 110.136719 25.503906 109.855469 24.929688 109.472656 24.429688 C 109.082031 23.894531 108.5625 23.46875 107.960938 23.191406 C 107.222656 22.855469 106.417969 22.699219 105.609375 22.726562 C 103.535156 22.628906 101.566406 23.660156 100.464844 25.421875 C 99.167969 27.671875 98.554688 30.25 98.699219 32.84375 C 98.675781 34.414062 98.910156 35.980469 99.394531 37.472656 C 99.769531 38.75 100.421875 39.925781 101.304688 40.921875 C 102.097656 41.832031 103.089844 42.550781 104.203125 43.027344 C 105.320312 43.515625 106.53125 43.769531 107.75 43.761719 C 109.378906 43.804688 110.996094 43.503906 112.496094 42.878906 C 113.65625 42.414062 114.695312 41.695312 115.542969 40.773438 L 116.886719 43.066406 C 116.457031 43.878906 115.871094 44.59375 115.164062 45.171875 C 114.351562 45.871094 113.457031 46.464844 112.496094 46.9375 C 110.261719 48.015625 107.816406 48.582031 105.335938 48.601562 Z M 105.335938 48.683594 "/>
<path style=" stroke:none;fill-rule:nonzero;fill:rgb(11.372549%,11.372549%,11.372549%);fill-opacity:1;" d="M 135.574219 19.40625 C 138.632812 19.121094 141.667969 20.109375 143.976562 22.140625 C 145.851562 24.195312 146.996094 26.8125 147.230469 29.585938 L 149.773438 48.179688 L 142.90625 48.179688 L 142.105469 41.996094 C 141.089844 44.003906 139.5625 45.710938 137.675781 46.9375 C 135.796875 48.144531 133.605469 48.765625 131.375 48.726562 C 130.074219 48.753906 128.777344 48.542969 127.554688 48.09375 C 126.523438 47.699219 125.582031 47.109375 124.78125 46.347656 C 124.035156 45.617188 123.460938 44.726562 123.101562 43.742188 C 122.746094 42.679688 122.589844 41.558594 122.640625 40.4375 C 122.601562 39.128906 122.929688 37.832031 123.585938 36.695312 C 124.226562 35.664062 125.085938 34.785156 126.105469 34.128906 C 127.199219 33.425781 128.40625 32.921875 129.675781 32.636719 C 131.050781 32.308594 132.460938 32.148438 133.875 32.152344 C 135.15625 32.160156 136.433594 32.324219 137.675781 32.636719 C 138.859375 32.914062 140 33.335938 141.078125 33.898438 L 140.574219 30.132812 C 140.390625 28.152344 139.742188 26.242188 138.683594 24.558594 C 137.703125 23.242188 136.117188 22.527344 134.484375 22.664062 C 133.765625 22.652344 133.050781 22.78125 132.382812 23.042969 C 131.871094 23.265625 131.40625 23.585938 131.019531 23.988281 C 130.675781 24.40625 130.410156 24.886719 130.242188 25.398438 C 130.054688 25.945312 129.902344 26.5 129.78125 27.0625 C 129.339844 29.164062 128.246094 30.257812 126.523438 30.257812 C 125.683594 30.261719 124.867188 29.972656 124.214844 29.4375 C 123.507812 28.832031 123.132812 27.925781 123.207031 26.996094 C 123.214844 25.925781 123.566406 24.886719 124.214844 24.03125 C 124.949219 23.023438 125.867188 22.167969 126.925781 21.507812 C 128.167969 20.792969 129.503906 20.25 130.894531 19.886719 C 132.425781 19.515625 134 19.351562 135.574219 19.40625 Z M 141.308594 36.230469 C 140.445312 35.792969 139.535156 35.4375 138.601562 35.179688 C 136.921875 34.722656 135.15625 34.679688 133.453125 35.054688 C 132.746094 35.207031 132.070312 35.484375 131.460938 35.875 C 130.871094 36.238281 130.390625 36.753906 130.074219 37.367188 C 129.714844 38.070312 129.542969 38.851562 129.570312 39.640625 C 129.511719 40.882812 129.976562 42.097656 130.851562 42.984375 C 131.890625 43.898438 133.253906 44.351562 134.632812 44.246094 C 136.109375 44.230469 137.539062 43.710938 138.683594 42.773438 C 139.988281 41.738281 141.015625 40.394531 141.664062 38.859375 Z M 141.308594 36.230469 "/>
<path style=" stroke:none;fill-rule:nonzero;fill:rgb(11.372549%,11.372549%,11.372549%);fill-opacity:1;" d="M 154.707031 34.128906 C 154.679688 32.101562 155.007812 30.089844 155.671875 28.175781 C 156.246094 26.464844 157.152344 24.886719 158.339844 23.527344 C 159.46875 22.246094 160.859375 21.222656 162.414062 20.519531 C 164.046875 19.785156 165.8125 19.40625 167.601562 19.40625 C 169.355469 19.394531 171.089844 19.769531 172.683594 20.5 C 174.238281 21.230469 175.613281 22.292969 176.714844 23.609375 L 176.714844 8.886719 L 183.519531 7.203125 L 183.519531 48.117188 L 178.5 48.117188 L 177.113281 44.183594 C 175.984375 45.597656 174.546875 46.734375 172.914062 47.507812 C 171.261719 48.296875 169.453125 48.699219 167.621094 48.683594 C 165.84375 48.703125 164.085938 48.34375 162.457031 47.632812 C 160.890625 46.933594 159.488281 45.917969 158.339844 44.644531 C 157.167969 43.277344 156.261719 41.699219 155.671875 39.996094 C 155.015625 38.109375 154.691406 36.125 154.707031 34.128906 Z M 161.636719 33.054688 C 161.625 34.675781 161.871094 36.289062 162.371094 37.832031 C 162.796875 39.195312 163.464844 40.46875 164.347656 41.59375 C 165.125 42.609375 166.113281 43.441406 167.242188 44.035156 C 168.320312 44.613281 169.527344 44.910156 170.75 44.898438 C 172.007812 44.90625 173.242188 44.546875 174.300781 43.867188 C 175.308594 43.222656 176.144531 42.34375 176.734375 41.300781 L 176.734375 27.398438 C 175.941406 26.113281 174.835938 25.050781 173.523438 24.304688 C 172.238281 23.597656 170.789062 23.234375 169.324219 23.253906 C 167.105469 23.097656 164.957031 24.0625 163.589844 25.820312 C 162.210938 27.929688 161.546875 30.433594 161.699219 32.949219 Z M 161.636719 33.054688 "/>
<path style=" stroke:none;fill-rule:nonzero;fill:rgb(11.372549%,11.372549%,11.372549%);fill-opacity:1;" d="M 215.585938 43.066406 C 215.15625 43.878906 214.570312 44.59375 213.863281 45.171875 C 213.050781 45.871094 212.15625 46.464844 211.195312 46.9375 C 210.125 47.460938 208.996094 47.863281 207.835938 48.136719 C 206.59375 48.453125 205.316406 48.609375 204.035156 48.601562 C 202.070312 48.621094 200.121094 48.246094 198.304688 47.507812 C 196.652344 46.867188 195.152344 45.890625 193.894531 44.644531 C 192.652344 43.273438 191.703125 41.664062 191.101562 39.914062 C 190.433594 38.023438 190.109375 36.027344 190.132812 34.023438 C 190.113281 32.003906 190.492188 30.003906 191.246094 28.132812 C 191.96875 26.378906 193.046875 24.796875 194.417969 23.484375 C 195.816406 22.167969 197.457031 21.140625 199.246094 20.457031 C 201.257812 19.695312 203.398438 19.324219 205.546875 19.363281 C 207.195312 19.332031 208.835938 19.578125 210.398438 20.097656 C 211.636719 20.503906 212.785156 21.144531 213.78125 21.992188 C 214.613281 22.730469 215.285156 23.632812 215.753906 24.640625 C 216.160156 25.542969 216.382812 26.515625 216.40625 27.503906 C 216.429688 28.78125 216.03125 30.03125 215.269531 31.058594 C 214.480469 32.097656 213.46875 32.953125 212.308594 33.558594 C 211.023438 34.234375 209.652344 34.726562 208.234375 35.03125 C 206.742188 35.371094 205.210938 35.539062 203.679688 35.539062 C 202.527344 35.523438 201.378906 35.382812 200.257812 35.117188 C 199.140625 34.90625 198.046875 34.574219 197 34.128906 C 197.097656 36.746094 198.09375 39.246094 199.816406 41.21875 C 201.558594 43.035156 204 44.007812 206.515625 43.886719 C 208.125 43.929688 209.726562 43.636719 211.21875 43.027344 C 212.367188 42.5625 213.390625 41.84375 214.222656 40.921875 Z M 196.9375 32.675781 C 198.503906 32.761719 200.074219 32.761719 201.640625 32.675781 C 202.988281 32.621094 204.320312 32.402344 205.609375 32.023438 C 206.660156 31.746094 207.617188 31.195312 208.382812 30.425781 C 209.089844 29.621094 209.449219 28.570312 209.390625 27.503906 C 209.382812 26.914062 209.285156 26.332031 209.097656 25.777344 C 208.917969 25.203125 208.617188 24.671875 208.214844 24.222656 C 207.773438 23.726562 207.230469 23.339844 206.617188 23.085938 C 205.875 22.796875 205.085938 22.652344 204.289062 22.664062 C 203.207031 22.644531 202.140625 22.9375 201.222656 23.507812 C 200.296875 24.058594 199.503906 24.8125 198.910156 25.714844 C 198.246094 26.710938 197.734375 27.804688 197.398438 28.953125 C 197.078125 30.167969 196.921875 31.421875 196.9375 32.675781 Z M 196.9375 32.675781 "/>
<path style=" stroke:none;fill-rule:nonzero;fill:rgb(11.372549%,11.372549%,11.372549%);fill-opacity:1;" d="M 263.046875 48.117188 L 256.199219 48.117188 L 254.289062 30.488281 C 254.207031 28.808594 253.761719 27.164062 252.988281 25.671875 C 252.441406 24.664062 251.378906 24.046875 250.234375 24.074219 C 249.296875 24.066406 248.378906 24.351562 247.609375 24.894531 C 246.753906 25.472656 246.039062 26.234375 245.511719 27.125 L 245.511719 48.160156 L 238.707031 48.160156 L 238.707031 30.996094 C 238.800781 29.171875 238.5 27.347656 237.824219 25.652344 C 237.339844 24.515625 236.203125 23.796875 234.96875 23.84375 C 233.929688 23.828125 232.902344 24.058594 231.964844 24.515625 C 231.089844 24.96875 230.316406 25.597656 229.699219 26.367188 L 229.699219 48.117188 L 222.871094 48.117188 L 222.871094 20.035156 L 227.996094 20.035156 L 229.507812 24.242188 C 230.398438 22.78125 231.632812 21.5625 233.101562 20.6875 C 234.65625 19.816406 236.421875 19.382812 238.203125 19.425781 C 239.855469 19.316406 241.492188 19.835938 242.78125 20.875 C 243.9375 22.015625 244.714844 23.484375 245.007812 25.082031 C 245.832031 23.390625 247.085938 21.941406 248.640625 20.875 C 250.195312 19.871094 252.019531 19.359375 253.867188 19.40625 C 254.980469 19.355469 256.089844 19.59375 257.082031 20.097656 C 257.953125 20.601562 258.679688 21.328125 259.183594 22.203125 C 259.765625 23.191406 260.183594 24.273438 260.421875 25.398438 C 260.710938 26.789062 260.929688 28.191406 261.070312 29.605469 Z M 263.046875 48.117188 "/>
<path style=" stroke:none;fill-rule:nonzero;fill:rgb(11.372549%,11.372549%,11.372549%);fill-opacity:1;" d="M 294 20.035156 L 285.726562 45.867188 C 285.09375 47.847656 284.347656 49.792969 283.5 51.691406 C 282.757812 53.351562 281.804688 54.90625 280.664062 56.320312 C 279.644531 57.578125 278.382812 58.617188 276.949219 59.371094 C 275.398438 60.148438 273.683594 60.53125 271.949219 60.484375 C 270.832031 60.5 269.722656 60.304688 268.675781 59.917969 C 267.761719 59.582031 266.910156 59.097656 266.152344 58.488281 C 265.453125 57.921875 264.890625 57.203125 264.515625 56.382812 C 264.152344 55.660156 263.957031 54.859375 263.949219 54.046875 C 263.882812 53.042969 264.296875 52.070312 265.0625 51.417969 C 265.804688 50.832031 266.722656 50.515625 267.664062 50.515625 C 268.523438 50.484375 269.367188 50.742188 270.058594 51.25 C 270.699219 51.777344 271.109375 52.53125 271.214844 53.355469 C 271.34375 54.183594 271.628906 54.984375 272.054688 55.710938 C 272.558594 56.347656 273.347656 56.6875 274.15625 56.613281 C 274.730469 56.617188 275.300781 56.546875 275.855469 56.402344 C 276.4375 56.269531 276.996094 56.050781 277.515625 55.75 C 278.0625 55.394531 278.546875 54.949219 278.941406 54.425781 C 279.410156 53.789062 279.765625 53.078125 279.992188 52.324219 L 265.292969 20.015625 L 273 20.015625 L 283.5 45.003906 L 288.875 20.035156 Z M 294 20.035156 "/>
<path style=" stroke:none;fill-rule:nonzero;fill:rgb(65.098039%,3.921569%,23.921569%);fill-opacity:1;" d="M 43.597656 23.378906 C 42.988281 22.664062 42.28125 22.039062 41.496094 21.527344 C 41.160156 21.296875 40.84375 21.085938 40.507812 20.898438 C 39.539062 20.363281 38.5 19.964844 37.421875 19.71875 C 36.65625 19.539062 35.875 19.433594 35.089844 19.40625 C 32.351562 19.300781 29.621094 19.738281 27.046875 20.6875 C 27.851562 18.355469 29.042969 16.179688 30.574219 14.25 C 32.660156 11.632812 35.308594 9.527344 38.324219 8.085938 C 38.25 7.175781 38.015625 6.285156 37.632812 5.457031 C 37.253906 4.675781 36.742188 3.960938 36.121094 3.355469 C 32.734375 4.910156 29.726562 7.175781 27.300781 10 C 28 8.015625 29.007812 6.148438 30.28125 4.46875 C 29.777344 3.746094 29.160156 3.105469 28.453125 2.578125 C 27.71875 2.003906 26.886719 1.5625 25.996094 1.273438 C 24.34375 3.457031 23.046875 5.894531 22.15625 8.488281 C 22.050781 8.84375 21.925781 9.222656 21.820312 9.601562 C 21.914062 8.503906 22.097656 7.414062 22.363281 6.34375 C 22.683594 5.09375 23.128906 3.882812 23.6875 2.722656 C 23.0625 2.152344 22.355469 1.675781 21.589844 1.316406 C 20.746094 0.878906 19.839844 0.59375 18.898438 0.472656 C 18.1875 1.992188 17.625 3.578125 17.21875 5.207031 C 16.695312 7.269531 16.433594 9.386719 16.441406 11.515625 C 16.5 15.109375 17.339844 18.648438 18.898438 21.886719 C 18.007812 21.332031 17.058594 20.878906 16.066406 20.539062 C 13.816406 19.742188 11.378906 19.640625 9.070312 20.246094 C 6.394531 21.027344 4.070312 22.707031 2.476562 25 C 0.40625 27.988281 -0.351562 31.699219 0.378906 35.265625 C 1.042969 38.191406 2.640625 40.820312 4.933594 42.753906 C 9.953125 46.8125 14.511719 44.265625 18.753906 47.421875 C 20.558594 48.746094 22.574219 51.292969 23.308594 56.699219 C 23.363281 56.988281 23.617188 57.195312 23.910156 57.195312 C 24.203125 57.195312 24.453125 56.988281 24.507812 56.699219 C 25.273438 53.953125 25.734375 51.132812 25.871094 48.285156 C 27.109375 48.527344 28.367188 48.65625 29.632812 48.664062 C 30.070312 48.664062 30.535156 48.664062 31.015625 48.664062 C 34.796875 48.574219 38.425781 47.148438 41.265625 44.644531 C 41.644531 44.289062 42 43.910156 42.335938 43.53125 L 42.628906 43.171875 C 43.574219 42.003906 44.347656 40.707031 44.941406 39.324219 C 45.003906 39.179688 45.0625 39.03125 45.109375 38.882812 C 47.25 33.390625 46.535156 26.976562 43.597656 23.378906 Z M 43.597656 23.378906 "/>
</g>
</svg>
