<svg width="148" height="116" viewBox="0 0 148 116" fill="none" xmlns="http://www.w3.org/2000/svg">
<path fill-rule="evenodd" clip-rule="evenodd" d="M33.9385 1.52136C32.9718 1.69011 32.7049 2.06247 31.7289 4.60459C29.6823 9.93473 29.5804 11.8899 31.2988 12.8597C32.6292 13.6105 38.1325 15.5973 42.3649 16.8548C44.0927 17.3682 46.3892 18.0909 47.4683 18.4607C48.5473 18.8305 50.8855 19.5404 52.6643 20.0383C54.443 20.5362 55.9313 20.9789 55.9718 21.0219C56.0611 21.1169 60.7565 22.536 66.7548 24.2812C69.1937 24.9907 71.331 25.6401 71.504 25.7242C71.6771 25.8084 73.1068 26.2344 74.6813 26.6711C77.6399 27.4918 77.9217 27.5208 79.4988 27.1646C79.9691 27.0582 80.5388 26.9652 80.7648 26.958C81.2238 26.9428 82.1802 26.4842 82.2433 26.2488C82.2658 26.1649 82.4482 26.0091 82.6485 25.9023C82.8488 25.7955 83.2075 25.5436 83.4451 25.3423C83.8008 25.0415 83.9599 25.0174 84.3418 25.2063C84.5973 25.3327 85.9986 25.8369 87.4561 26.3267C91.7392 27.7662 97.0065 29.777 96.959 29.9545C96.836 30.4134 86.0162 31.5106 80.5363 31.62C79.4505 31.6417 78.4327 31.6894 78.2744 31.726C76.9585 32.0304 64.9537 31.8691 56.7546 31.4369C51.2201 31.1452 45.9366 30.8237 45.0744 30.726C41.445 30.3147 38.0724 29.9372 37.7087 29.9016C37.4695 29.8782 36.6151 29.7693 35.8099 29.6596C35.0048 29.55 33.9901 29.4395 33.5551 29.4141C33.1201 29.3888 32.2855 29.2863 31.7005 29.1865C31.1156 29.0864 30.2628 28.976 29.8056 28.9408C29.3484 28.9058 28.9366 28.837 28.8907 28.788C28.7744 28.6643 25.2202 28.3675 24.3998 28.413C20.6093 28.623 18.7766 34.2534 20.8287 39.3842C21.5167 41.1046 23.0696 41.5783 31.6915 42.6981C35.8426 43.2374 45.7411 43.9305 46.2417 43.7172C46.3572 43.6679 47.2863 43.6482 48.3063 43.6733C50.3439 43.7234 53.1944 43.7231 57.314 43.6724C58.7916 43.6542 60.4029 43.6367 60.8946 43.6335C65.1447 43.6055 67.9639 43.5501 69.4186 43.4658C71.0012 43.3743 71.3482 43.3551 71.8648 43.3303C71.9643 43.3255 72.9792 43.2849 74.1203 43.24C75.2615 43.1949 76.544 43.0972 76.9705 43.0226C77.3967 42.948 77.9738 42.893 78.2527 42.9005C78.5316 42.9077 78.8486 42.8816 78.9573 42.8424C79.0661 42.803 80.0547 42.7109 81.1542 42.6377C82.2538 42.5645 83.3023 42.4698 83.4841 42.4273C83.666 42.3846 83.8886 42.3694 83.9785 42.3935C84.1362 42.4358 86.6752 42.1198 88.7882 41.7948C89.8831 41.6264 94.122 41.126 95.3322 41.0223C95.7341 40.9879 96.825 40.8138 97.7564 40.6355C98.6878 40.4572 99.8231 40.2675 100.279 40.2137C103.569 39.8264 114.868 37.1318 116.426 36.3634C116.814 36.1717 116.943 36.189 117.408 36.4939C119.417 37.8137 126.217 38.7966 129.366 38.2226C131.36 37.8593 133.363 36.5661 133.645 35.4605C133.763 34.997 132.609 33.7743 132.176 33.9047C132.07 33.9367 131.921 33.8261 131.845 33.659C131.637 33.205 131.473 33.2296 131.001 33.7849C130.609 34.2472 130.205 34.4231 128.585 34.8368C125.324 35.6702 119.028 33.215 118.27 30.8143C117.952 29.8043 117.152 28.6868 116.776 28.7265C116.632 28.7418 116.433 28.6401 116.335 28.5003C116.053 28.1022 113.935 27.7581 113.137 27.9807C112.54 28.1474 112.426 28.1297 112.085 27.8174C111.875 27.6247 111.65 27.4606 111.585 27.4527C111.52 27.4447 111.434 27.4135 111.393 27.3834C111.169 27.2182 108.032 25.6724 107.057 25.2466C106.705 25.093 106.239 24.883 106.021 24.7797C105.217 24.3985 102.875 23.4403 100.954 22.706C100.687 22.604 99.8888 22.2847 99.1805 21.9967C98.4722 21.7089 97.7801 21.4439 97.6425 21.4077C97.5049 21.3717 96.9549 21.176 96.4201 20.9732C95.8855 20.7702 94.522 20.3127 93.3902 19.9565C92.2584 19.6002 90.7073 19.0936 89.9432 18.8305C89.1792 18.5673 87.9732 18.1992 87.2631 18.0124C86.5532 17.8254 85.9516 17.6033 85.9263 17.5187C85.9009 17.4343 85.151 17.1577 84.2598 16.9042C83.3684 16.6507 81.1965 15.982 79.4331 15.4182C77.6696 14.8544 75.1517 14.0587 73.8377 13.6497C70.0948 12.4849 67.937 11.8008 66.5162 11.3281C64.8827 10.7849 62.5374 10.0376 57.4704 8.4463C55.297 7.76374 53.1522 7.07453 52.704 6.91509C52.2559 6.75547 50.5528 6.21613 48.9194 5.71674C47.286 5.21734 45.3589 4.61509 44.6368 4.37867C40.3458 2.97306 34.5259 1.41882 33.9385 1.52136ZM41.1696 3.99424C42.5312 4.40882 44.9085 5.13006 46.4524 5.5969C47.9964 6.06374 50.5151 6.8567 52.0495 7.35909C55.0801 8.35147 57.3943 9.08946 60.8478 10.1653C62.0711 10.5462 65.366 11.5903 68.1697 12.4852C70.9735 13.3799 74.4183 14.464 75.8249 14.894C77.2314 15.3242 79.0831 15.9084 79.9397 16.1923C81.9291 16.8519 83.572 17.3727 84.6584 17.6884C85.6225 17.9683 85.6827 18.166 85.1551 19.3168C85.0044 19.6455 84.946 19.9316 85.0252 19.9528C85.1045 19.9741 85.1182 20.159 85.0557 20.3635C84.9932 20.5681 84.9292 20.6311 84.9138 20.5034C84.8982 20.3756 84.8057 20.2951 84.708 20.3246C84.4241 20.4101 84.3327 21.0211 84.5771 21.1989C84.6999 21.2883 84.7517 21.4072 84.6922 21.4634C84.6327 21.5196 84.4342 21.9612 84.2513 22.4446C83.7615 23.7391 83.4988 24.2432 83.2051 24.4518C83.0608 24.5543 82.9289 24.783 82.9121 24.9603C82.8954 25.1374 82.8056 25.262 82.7125 25.2371C82.6194 25.2121 82.3483 25.4213 82.1101 25.7018C81.8217 26.0414 81.5622 26.1812 81.3338 26.12L80.9906 26.028L81.4458 25.7453C82.5216 25.077 84.8367 19.9578 84.7231 18.4988C84.7005 18.2074 83.9783 17.9163 80.9759 16.9884C79.5705 16.5542 76.9031 15.7168 75.0483 15.1275C73.1935 14.5383 70.7496 13.766 69.6174 13.4112C65.7061 12.1854 63.7609 11.5679 60.5691 10.5391C58.8068 9.97102 56.3638 9.19531 55.1402 8.81521C53.9167 8.43512 51.2861 7.60986 49.2946 6.98124C35.4306 2.60515 35.3331 2.57795 33.8799 2.66999C33.1595 2.71563 33.4068 2.4028 34.2519 2.19951C34.8219 2.06239 35.1621 2.12117 36.8019 2.6407C37.8425 2.97054 39.8081 3.5795 41.1696 3.99424ZM39.6547 4.65156C45.2468 6.35356 47.6611 7.10513 48.2224 7.31869C48.5343 7.43731 49.4124 7.70712 50.1739 7.91815L51.5583 8.30179L51.0415 8.78949C50.7572 9.05771 50.5996 9.29727 50.6912 9.32182C50.7828 9.34636 51.0903 9.14697 51.3746 8.87875C51.7423 8.53162 52.0114 8.42322 52.3081 8.5027C52.8797 8.65586 52.7388 8.79934 51.0542 9.77939C50.2489 10.2479 49.6292 10.6991 49.677 10.782C49.7249 10.865 50.5141 10.4664 51.4311 9.8963C52.704 9.1049 53.1818 8.89675 53.4509 9.01573L53.8032 9.17169L53.3113 9.48715C51.1066 10.9009 50.2938 11.5411 50.6001 11.6232C50.732 11.6585 52.9536 10.2141 53.7791 9.55614C54.0973 9.30272 54.3779 9.2373 54.731 9.33476L55.2318 9.47289L54.2824 9.97491C52.9555 10.6764 50.1658 12.6098 50.2567 12.7647C50.2981 12.8354 50.9339 12.4932 51.6693 12.0043C54.6198 10.0433 55.3638 9.64227 55.7426 9.80834C56.0969 9.96375 56.096 9.97354 55.7098 10.2193C54.3167 11.1052 50.9451 13.5768 50.186 14.2685C49.1525 15.2104 50.981 14.1768 52.2058 13.1269C52.5119 12.8645 52.862 12.5869 52.984 12.5103C53.1059 12.4335 53.7463 12.0023 54.4069 11.5521C56.6235 10.0415 56.8666 9.91899 57.1849 10.1521C57.4502 10.3464 57.3776 10.4295 56.4022 11.0466C55.8109 11.4207 54.5339 12.3194 53.5644 13.0436C52.5947 13.7678 51.7493 14.3866 51.6854 14.4187C51.6216 14.4508 51.2585 14.756 50.8787 15.0971C50.4988 15.4381 49.7557 15.9818 49.2273 16.3054C48.699 16.6289 48.3015 16.954 48.344 17.0278C48.4253 17.1689 49.0934 16.7878 50.2614 15.9343C50.6454 15.6538 51.224 15.2452 51.5475 15.0265C51.8709 14.8078 53.102 13.9216 54.2836 13.0575C55.465 12.1932 56.8494 11.259 57.3599 10.9813L58.2883 10.4765L59.5503 10.8864C60.2444 11.1119 62.148 11.7081 63.7805 12.2111C65.4129 12.7142 66.9686 13.2366 67.2375 13.372L67.7264 13.618L64.6308 15.9194C61.4235 18.304 59.9574 19.5792 61.5716 18.5805C62.0204 18.3029 62.6897 17.8476 63.0589 17.5689C63.4281 17.2902 63.9891 16.8805 64.3057 16.6585C64.6221 16.4364 65.3695 15.8952 65.9667 15.4558C67.872 14.0535 68.4709 13.7023 68.7361 13.8317C68.9389 13.9308 68.8106 14.0844 68.1371 14.5491C67.6656 14.8741 67.0118 15.343 66.684 15.591C66.3563 15.8388 65.7785 16.2715 65.3999 16.5527C65.0213 16.8338 64.69 17.1476 64.6636 17.25C64.5997 17.498 65.8577 16.7029 67.8427 15.2407C69.2329 14.2165 69.5313 14.0671 69.9365 14.1916C70.4768 14.3577 70.5956 14.2274 68.5467 15.7163C66.8467 16.9517 66.1197 17.5664 66.1979 17.7022C66.2317 17.7608 66.7004 17.4678 67.2397 17.0513C67.779 16.6347 68.6219 16.022 69.1126 15.6896C69.6035 15.3572 70.166 14.9499 70.3626 14.7847C70.6271 14.5624 70.8501 14.5339 71.2201 14.6756L71.72 14.867L70.7405 15.4894C69.5601 16.2392 68.7948 16.8563 68.9825 16.9066C69.0581 16.9268 69.7906 16.479 70.6103 15.9115C71.8486 15.0541 72.1834 14.9017 72.5906 15.0108C73.185 15.1701 73.1854 15.1666 72.4945 15.6281C71.7248 16.1421 71.3353 16.5498 71.7113 16.4478C72.1136 16.3388 73.1388 15.5918 73.2001 15.3629C73.2692 15.105 74.6429 15.6117 74.6013 15.8797C74.5353 16.3039 74.5635 16.334 74.8031 16.0957C74.9396 15.96 75.2465 15.9014 75.4852 15.9653C75.9089 16.0789 75.9099 16.0876 75.5268 16.3354C74.9195 16.7287 75.225 16.9134 75.8834 16.551C76.9626 15.9567 77.2272 16.325 76.1702 16.9502C75.6573 17.2536 75.2767 17.5694 75.3242 17.652C75.3718 17.7348 75.88 17.5355 76.4537 17.2092C77.0272 16.8829 77.6271 16.6312 77.7866 16.6498C77.9547 16.6693 77.6181 16.9526 76.9856 17.3242C75.8234 18.0066 75.6761 18.1634 76.092 18.2748C76.3646 18.3479 76.932 18.0904 76.992 17.8664C77.0532 17.638 78.3782 16.9194 78.6189 16.9839C78.8465 17.0449 77.2031 18.3303 76.6936 18.4897C76.3554 18.5955 76.2625 19.0361 76.5616 19.1163C76.6957 19.1522 76.9312 19.0475 77.0847 18.8834C77.9269 17.9836 80.1166 16.8644 79.9708 17.4084C79.9546 17.4689 78.5578 18.4155 77.5009 19.0822C77.1673 19.2927 76.9674 19.5132 77.0564 19.5721C77.2391 19.693 77.9904 19.278 79.2505 18.3608C79.9868 17.8246 80.6258 17.629 80.5351 17.9674C80.5197 18.0249 79.7571 18.5651 78.8405 19.1678C77.4726 20.0672 77.2279 20.2897 77.4746 20.4097C77.64 20.4899 77.8284 20.4749 77.8934 20.3762C78.0834 20.0883 80.8288 18.2917 81.0063 18.3393C81.278 18.412 81.0176 18.6423 79.8886 19.3281C79.2929 19.69 78.2253 20.394 77.5162 20.8928C76.8068 21.3915 76.1707 21.8248 76.1025 21.8558C75.8788 21.957 74.0405 23.5519 74.0081 23.6728C73.916 24.0168 74.3645 23.7665 75.332 22.9339C75.9266 22.4221 76.6714 21.8683 76.9873 21.7032C77.3032 21.5383 77.9119 21.1433 78.34 20.8258C79.9645 19.6212 80.9387 19.094 80.8419 19.4717C80.7931 19.6627 80.5088 19.9489 80.2105 20.1076C78.9482 20.7787 74.3745 24.3039 74.2726 24.6843C74.2279 24.8511 75.4644 24.0077 77.1455 22.7251C79.384 21.017 80.6339 20.2636 80.5191 20.6918C80.4612 20.9079 79.688 21.5931 78.6707 22.3298C77.7091 23.0262 76.2774 24.0967 75.4896 24.7086L74.0573 25.821L70.3185 24.7847C68.2622 24.2148 65.8379 23.5195 64.931 23.24C64.0241 22.9604 62.1686 22.3905 60.8076 21.9736C58.3958 21.2349 56.18 20.544 52.3234 19.3278C51.2823 18.9996 49.1309 18.335 47.5424 17.851C45.9539 17.3671 44.3978 16.8791 44.0843 16.7666C43.7708 16.6542 43.1231 16.4486 42.6448 16.3097C41.9535 16.1087 41.7905 16.0005 41.8493 15.7808C41.9182 15.5237 41.8971 15.5181 41.5447 15.6992C41.1424 15.9061 40.5831 15.843 40.6487 15.5981C40.6703 15.5176 40.8254 15.3884 40.9935 15.3108C41.3371 15.1524 41.4581 14.8986 41.2204 14.8349C41.134 14.8118 40.8701 14.9826 40.6339 15.2145C40.3977 15.4464 40.0708 15.6003 39.9073 15.5565C39.4891 15.4445 39.5531 15.3475 40.5723 14.5511C41.069 14.1628 41.4864 13.8045 41.4997 13.7546C41.5798 13.4558 41.1243 13.6914 40.2564 14.3977C39.6681 14.8764 39.1403 15.1721 38.9599 15.1238C38.5417 15.0117 38.5409 15.0127 39.9354 13.9174C40.6169 13.382 41.1935 12.8789 41.2167 12.7994C41.3001 12.5138 40.5959 12.9681 39.4246 13.9558L38.2326 14.9607L36.8433 14.4804C31.6192 12.6739 31.8609 13.0561 34.7215 11.1256C35.3999 10.6677 36.2463 10.009 36.6027 9.66166C37.2633 9.01749 37.2155 9.04207 35.6876 10.1321C33.3718 11.7842 32.3955 12.3408 32.2518 12.0911C32.1179 11.8587 32.2769 11.7243 33.9006 10.6983C34.3007 10.4455 34.6216 10.1538 34.6137 10.0501C34.6058 9.94652 33.8248 10.3649 32.8782 10.9798C31.9026 11.6136 31.0737 12.0374 30.9648 11.9581C30.6626 11.7383 30.8241 11.4696 31.5183 11.0373C31.8712 10.8175 32.1861 10.5396 32.2179 10.4197C32.2498 10.2999 31.8928 10.4616 31.4245 10.7789L30.5734 11.3559L30.5792 10.8624C30.5841 10.4592 30.6817 10.3274 31.1122 10.1424C31.4021 10.0179 31.6716 9.7956 31.711 9.64854C31.7692 9.43121 31.6919 9.42999 31.2979 9.64198C30.4269 10.1105 31.6848 5.59431 32.8921 3.91887C33.3465 3.28815 35.5679 3.15217 36.6096 3.69142C36.6958 3.736 38.0661 4.16811 39.6547 4.65156ZM89.1111 19.1799C89.7584 19.6136 87.7639 24.0859 87.0129 23.8847C85.4683 23.4708 84.5357 22.9923 84.7178 22.7069C84.8175 22.5509 85.1262 21.5786 85.4039 20.5461C86.0939 17.981 85.9321 18.1266 87.5427 18.6224C88.2919 18.853 88.9978 19.1039 89.1111 19.1799ZM95.1278 21.133C95.484 21.2691 96.4935 21.6255 97.3708 21.9249C99.344 22.5984 99.325 22.474 97.9418 25.7044C97.3862 27.0018 96.846 28.2817 96.7412 28.5488C96.6364 28.8159 96.4825 29.0147 96.3989 28.9908C95.8741 28.8396 92.5794 27.685 92.2514 27.5375C92.0324 27.4389 91.1946 27.118 90.3896 26.8245C89.5846 26.531 88.8546 26.2576 88.7674 26.2167C88.6801 26.1759 88.4615 26.0926 88.2815 26.0315C87.5453 25.7817 87.5542 25.6372 88.4137 23.8893C88.8596 22.9827 89.3666 21.6752 89.5403 20.9837C89.7142 20.2923 89.8799 19.6605 89.9084 19.5794C89.9552 19.4472 93.3928 20.4703 95.1278 21.133ZM83.6134 20.4691L83.0767 22.4722L82.5771 22.3383C82.3023 22.2646 82.0573 22.2795 82.0327 22.3713C82.0081 22.4631 82.1753 22.5884 82.4043 22.6498C82.7403 22.7398 82.7985 22.8442 82.7059 23.1897C82.5077 23.9295 82.1312 24.1868 81.4963 24.0167C81.1789 23.9316 80.8991 23.9371 80.8745 24.0289C80.8499 24.1208 81.0921 24.2662 81.4127 24.3521C81.8007 24.456 81.9747 24.5862 81.9331 24.7414C81.8912 24.898 81.6966 24.9194 81.3419 24.8067C80.9585 24.6848 80.7754 24.7145 80.6752 24.9148C80.5794 25.1062 80.6413 25.2188 80.877 25.282C81.3347 25.4046 81.0721 25.7636 80.084 26.3664C79.0595 26.9914 79.0374 26.9545 79.6591 25.6616C80.6763 23.5467 82.2545 18.5844 82.055 18.1283C81.9685 17.9307 82.187 17.94 83.0473 18.1705L84.1501 18.466L83.6134 20.4691ZM102.227 23.7623C103.223 24.1796 104.571 24.7785 105.223 25.0928C105.876 25.4073 106.661 25.7734 106.969 25.9065C110.825 27.574 112.358 28.5167 111.183 28.4985C110.939 28.4948 110.721 28.5587 110.699 28.6405C110.677 28.7225 110.558 28.7623 110.435 28.7293C110.311 28.6962 109.072 28.8994 107.681 29.1811C104.464 29.8319 100.393 30.5265 99.9361 30.5024C99.4217 30.4755 97.1915 29.4044 97.2685 29.2212C97.3045 29.1355 97.5317 28.5146 97.7735 27.8414C98.0153 27.1682 98.4078 26.1865 98.6458 25.6599C98.8837 25.1332 99.181 24.3205 99.3065 23.8541C99.6403 22.6146 99.4988 22.6189 102.227 23.7623ZM116.314 29.0522C117.367 29.3343 118.111 31.5092 117.695 33.09L117.476 33.9257L117.398 33.1891C117.355 32.784 117.297 32.2157 117.269 31.926C117.202 31.2363 116.784 30.5898 115.908 29.8232C115.237 29.2363 114.96 28.2895 115.593 28.7505C115.723 28.8451 116.047 28.9808 116.314 29.0522ZM113.619 29.2745C113.267 30.1974 113.113 31.7539 113.292 32.572C113.353 32.8506 113.392 33.3206 113.379 33.6161C113.365 33.9118 113.597 34.6336 113.895 35.2202L114.436 36.2867L113.97 36.4946C113.401 36.7485 113.129 36.5359 112.638 35.4551C112.204 34.4999 111.829 34.5953 111.838 35.6586C111.85 37.0739 111.726 37.2304 110.409 37.4612C110.317 37.4775 110.385 37.1659 110.565 36.7535C111.513 34.5724 110.587 30.9578 108.814 29.9249L108.371 29.667L109.118 29.5032C110 29.3097 110.637 29.6772 111.293 30.7575C111.861 31.6926 112.167 31.4915 112.592 29.9024C112.927 28.6539 113.248 28.2917 113.916 28.4124C113.933 28.4154 113.799 28.8033 113.619 29.2745ZM112.274 29.0878C112.197 29.2885 112.107 29.5147 112.074 29.5904C112.041 29.6662 111.845 29.6339 111.639 29.5189C111.43 29.4023 111.217 29.3808 111.158 29.4702C111.099 29.5593 110.931 29.5427 110.78 29.433C110.557 29.2711 110.677 29.1912 111.437 28.9918C111.948 28.858 112.377 28.7426 112.39 28.7355C112.403 28.7285 112.35 28.8871 112.274 29.0878ZM132.34 34.6857C133.08 35.2572 133.074 35.4061 132.29 36.0767C130.984 37.1931 128.44 38.0307 126.869 37.8615C126.494 37.8211 125.935 37.8014 125.626 37.8179C124.472 37.8795 124.143 37.8278 121.277 37.1349C119.379 36.6758 118.142 36.3003 117.769 36.0696L117.192 35.7134L117.592 35.2739C117.879 34.9582 118.07 34.4817 118.269 33.5819C118.505 32.5202 118.581 32.3556 118.768 32.5023C122.663 35.5444 129.058 36.6089 131.314 34.5905C131.766 34.1858 131.684 34.1782 132.34 34.6857ZM74.9972 19.4485C74.8578 19.5292 74.7202 19.6827 74.6916 19.7897C74.6629 19.8967 74.431 20.1405 74.1764 20.3315C73.9219 20.5226 73.7777 20.6961 73.8563 20.7172C74.02 20.761 75.4252 19.7165 75.4806 19.5097C75.534 19.3106 75.2892 19.2795 74.9972 19.4485ZM75.5292 20.1278C75.3898 20.2085 75.2511 20.3663 75.221 20.4787C75.1909 20.591 74.9191 20.856 74.617 21.0674C74.3149 21.2787 74.0448 21.5373 74.0168 21.642C73.9643 21.8378 74.8966 21.2496 75.5895 20.6497C76.1766 20.1415 76.1345 19.7774 75.5292 20.1278ZM85.1648 22.6738C85.4441 22.9832 87.4895 23.5313 87.4132 23.2763C87.3812 23.1693 86.8157 22.9385 86.1567 22.7634C85.3214 22.5415 85.021 22.5144 85.1648 22.6738ZM75.9424 20.8877C75.7458 21.015 75.5698 21.1756 75.5513 21.2447C75.5327 21.314 75.1573 21.6297 74.717 21.9465C74.2766 22.2632 73.9703 22.5368 74.0361 22.5544C74.26 22.6144 76.4717 21.1405 76.54 20.8858C76.6065 20.6374 76.3276 20.6383 75.9424 20.8877ZM79.1504 23.1816C78.661 23.5085 77.5504 24.3273 76.6825 25.0014C75.6219 25.8252 75.0334 26.1754 74.8879 26.0695C74.6202 25.8747 74.7234 25.7828 77.8845 23.404C79.7081 22.0317 80.1345 21.7967 80.0877 22.1899C80.0556 22.4604 79.7561 22.7773 79.1504 23.1816ZM107.843 30.694C107.273 30.774 106.755 30.8859 106.691 30.9426C106.626 30.9993 106.371 31.0527 106.123 31.0613C105.596 31.0796 94.663 32.782 93.5495 33.0191C92.764 33.1863 90.3149 33.4264 87.9582 33.5669C87.2099 33.6115 86.3621 33.7024 86.0744 33.7688C85.7867 33.8354 85.5662 33.8289 85.5846 33.7546C85.603 33.6801 85.5344 33.6962 85.432 33.7906C85.3296 33.8848 85.0181 33.9277 84.7398 33.8858C84.4615 33.8438 84.0634 33.8458 83.8552 33.8901C83.647 33.9344 82.8324 33.9766 82.0449 33.984C81.2575 33.9915 80.3966 34.0495 80.1317 34.1131C79.575 34.2468 73.1929 34.4884 71.8406 34.427C71.5981 34.4159 70.1096 34.4251 68.5327 34.4475C66.9559 34.4698 65.4316 34.4624 65.1454 34.4312C64.6621 34.3784 63.364 34.3614 60.9651 34.3768C60.4242 34.3802 59.2691 34.3439 58.3983 34.2961C57.5275 34.2483 55.9376 34.1862 54.8652 34.1579C52.4334 34.094 51.7531 34.0495 50.5773 33.8774C50.0632 33.8021 49.4791 33.7336 49.2792 33.7254C49.0794 33.7172 48.6793 33.6939 48.3901 33.6738C48.101 33.6538 47.3516 33.6024 46.7249 33.5598C43.6523 33.3511 42.3221 33.2382 38.8706 32.8934C33.9639 32.4032 32.0593 32.1923 30.8092 32.0008C30.2433 31.9142 29.6303 31.8784 29.4471 31.9211C29.1748 31.9846 29.1329 31.9292 29.2184 31.6181C29.4941 30.613 29.6076 30.5645 31.198 30.7729C35.0165 31.2735 41.5084 32.0181 43.4361 32.1768C57.3736 33.3243 69.9532 33.7028 78.2206 33.2237C79.5605 33.146 80.7803 33.0902 80.9315 33.0998C81.0827 33.1091 81.3314 33.0994 81.4845 33.0778C81.6375 33.0564 82.6298 32.9925 83.6897 32.9361C84.7495 32.8794 86.2651 32.7693 87.0577 32.6914C87.8501 32.6133 89.1163 32.4926 89.8712 32.4232C90.6262 32.3539 91.6635 32.2296 92.1765 32.1472C92.6895 32.0648 93.44 31.9621 93.8442 31.9191C95.5093 31.7419 99.5032 31.1665 101.028 30.8841C101.925 30.7179 102.701 30.5929 102.751 30.6063C102.801 30.6197 103.749 30.4713 104.858 30.2763C105.967 30.0815 107.118 29.882 107.414 29.8332C107.871 29.7581 108.025 29.8065 108.416 30.1464L108.878 30.5484L107.843 30.694ZM86.7463 25.3579C86.5544 25.4942 86.2952 25.4732 85.8622 25.2865C85.5252 25.1413 84.9612 24.8977 84.609 24.7453C83.5179 24.2737 84.0904 24.2616 85.5901 24.7245C86.8301 25.1073 86.982 25.1905 86.7463 25.3579ZM79.6136 23.5555C79.5048 23.7471 78.9147 24.2541 78.302 24.6825C77.6895 25.111 76.9258 25.6914 76.6051 25.9724C76.2844 26.2534 75.8882 26.448 75.7248 26.4049C75.4877 26.3424 75.6226 26.1707 76.3924 25.5563C78.2995 24.0338 79.5758 23.1443 79.7759 23.1979C79.7955 23.2031 79.7226 23.3641 79.6136 23.5555ZM111.509 32.3268C110.978 33.3236 111.068 33.9083 111.781 34.0995C112.335 34.2477 113.101 33.7624 113 33.3279C112.902 32.9064 112.623 32.7867 112.532 33.1271C112.357 33.7797 111.462 33.3399 111.54 32.6396C111.568 32.3815 111.554 32.2407 111.509 32.3268ZM78.3481 25.5059C77.2371 26.3349 77.0762 26.6825 78.1072 26.0258C78.9934 25.4612 79.0298 25.7424 78.1521 26.3719C76.6685 27.436 75.9464 26.8416 77.334 25.6984C78.6358 24.626 79.2895 24.2421 79.2707 24.561C79.2619 24.7084 78.8466 25.1335 78.3481 25.5059ZM92.4474 31.4693C92.4165 31.5846 92.1252 31.6978 91.7999 31.7209C91.4746 31.7437 90.0073 31.8987 88.5391 32.0651C85.7927 32.3764 82.3788 32.6123 79.5362 32.6876C78.6463 32.7111 77.0268 32.7595 75.9373 32.7949C72.7276 32.8994 72.042 32.9078 70.8329 32.8579C70.2017 32.8319 68.9206 32.8164 67.9861 32.8235C63.5556 32.857 58.051 32.6791 56.3942 32.4488C56.0156 32.3962 55.5546 32.3877 55.37 32.4298C55.1854 32.4721 53.7102 32.4313 52.092 32.339C49.4056 32.186 48.3495 32.1055 43.829 31.7096C42.1564 31.563 37.973 31.1214 37.0587 30.9949C36.7274 30.949 35.9492 30.8552 35.3295 30.7864C34.3043 30.6728 32.7642 30.4664 28.609 29.886C27.8045 29.7736 26.5347 29.5974 25.7874 29.4945C25.0399 29.3917 24.4075 29.2715 24.3822 29.2275C24.261 29.0174 26.4301 29.1014 28.0335 29.3689C29.0202 29.5337 30.1836 29.6888 30.6187 29.7137C31.0538 29.7387 31.9258 29.8519 32.5566 29.9656C33.1873 30.0792 34.0807 30.1928 34.5417 30.2183C35.0028 30.2436 35.6883 30.3135 36.0648 30.3738C36.4414 30.4339 37.0057 30.5085 37.3189 30.5396C49.7852 31.7791 53.1867 32.0062 62.3486 32.2112C63.3245 32.2331 65.8359 32.304 67.9293 32.369C75.5478 32.6051 83.6917 32.2673 91.0352 31.4102C92.6735 31.2191 92.5162 31.2126 92.4474 31.4693ZM88.7059 36.7723C88.625 37.0741 88.5046 37.1657 88.2708 37.103C87.8876 37.0003 87.7638 36.694 87.9833 36.3912C88.2647 36.0032 88.8318 36.3023 88.7059 36.7723ZM28.5852 31.8C27.3408 34.9654 27.1519 39.1504 28.1704 40.9846C28.6317 41.8155 28.6352 41.813 27.2875 41.5916C23.2506 40.9279 22.2835 40.4535 22.8472 39.4137C23.9875 37.3099 24.1371 32.7156 23.1323 30.657C22.6819 29.7344 22.7734 29.7208 26.6692 30.1301C26.9557 30.1602 27.2296 30.1627 27.2777 30.1357C27.3258 30.1087 27.7507 30.1898 28.2217 30.316L29.0783 30.5455L28.5852 31.8ZM22.623 31.0946L22.9223 31.8303L22.2862 32.1018C21.9364 32.251 21.4291 32.6425 21.1591 32.9714L20.668 33.5698L20.956 32.4841C21.5383 30.2882 22.1035 29.8172 22.623 31.0946ZM25.2052 34.3513C24.5579 34.6294 24.3678 35.2063 24.6625 35.9991C24.9303 36.7192 25.4886 36.8953 26.1998 36.4836C27.5354 35.7105 26.6184 33.744 25.2052 34.3513ZM26.0166 34.9162C26.3202 35.2013 25.9894 35.8902 25.599 35.7856C25.2973 35.7047 25.159 35.144 25.3694 34.8538C25.5772 34.5674 25.6531 34.5747 26.0166 34.9162ZM26.3225 38.7525C26.0289 38.7489 25.3865 38.6479 24.8951 38.5278C24.2617 38.3731 24.0052 38.3756 24.014 38.5365C24.0416 39.0385 26.7239 39.4379 27.0201 38.9841C27.1557 38.7764 27.1123 38.7619 26.3225 38.7525ZM26.8126 39.7145C26.74 39.7565 26.0128 39.6043 25.1969 39.3762C23.722 38.9636 23.7122 38.9635 23.4822 39.3776C23.1138 40.0407 23.4216 40.2546 25.1595 40.5444C27.0029 40.8518 27.1 40.8472 27.2069 40.4483C27.2999 40.1012 27.0258 39.5912 26.8126 39.7145Z" fill="#F6F6F6"/>
<path d="M5.18555 70.2285H5.5957L5.74219 70.1699L5.88867 70.2285H6.18164C7.35352 70.2285 8.73047 70.502 10.3125 71.0488C11.875 71.8105 12.8027 72.3574 13.0957 72.6895L14.502 73.6562C14.6777 73.832 14.7852 73.9492 14.8242 74.0078V74.0664H14.7949C14.1895 73.6367 13.8184 73.4219 13.6816 73.4219H13.6523L13.5645 73.4805V73.5098C13.5645 73.7637 13.8574 74.0762 14.4434 74.4473L15.6445 75.9121C15.8789 76.4004 16.2109 77.1914 16.6406 78.2852C16.8359 78.7148 17.002 78.9297 17.1387 78.9297L17.2559 78.8125V78.7539C17.2559 78.6562 17.207 78.5586 17.1094 78.4609L17.2559 78.2852H17.3438C17.8516 80.1016 18.1055 81.3906 18.1055 82.1523L18.2227 84.0273L18.1934 84.2031H18.0469H17.9883C17.7148 84.5742 17.5 85.1113 17.3438 85.8145C16.4062 87.123 15.9375 87.8945 15.9375 88.1289H15.9668C16.2598 88.1289 16.582 87.7578 16.9336 87.0156L17.0801 86.9863L17.1094 87.0156C16.7383 87.8555 16.4355 88.2754 16.2012 88.2754C15.0879 89.2715 13.916 90.1309 12.6855 90.8535C12.1191 91.3418 11.3867 91.6934 10.4883 91.9082C9.39453 92.0059 8.69141 92.1426 8.37891 92.3184L8.14453 92.377C7.71484 92.2793 6.5332 92.1523 4.59961 91.9961C4.22852 91.8789 3.69141 91.8203 2.98828 91.8203C2.75391 91.8203 2.58789 91.8594 2.49023 91.9375C2.41211 91.9375 2.23633 91.8008 1.96289 91.5273H1.8457C1.78711 91.5273 1.71875 91.6836 1.64062 91.9961H1.58203V92.0254C1.42578 91.9863 1.34766 91.8008 1.34766 91.4688L1.43555 89.3594H1.40625V89.3008C1.44531 89.2031 1.51367 89.1543 1.61133 89.1543L2.75391 89.2715H2.87109C2.98828 89.2715 3.125 89.252 3.28125 89.2129L4.57031 89.5352L4.6875 89.418V89.2715L4.59961 88.8613C4.6582 88.5684 4.6875 88.002 4.6875 87.1621C4.6875 86.0684 4.58984 85.5215 4.39453 85.5215L4.36523 85.375C4.46289 81.6641 4.62891 78.4023 4.86328 75.5898C4.98047 74.9648 5.03906 74.5254 5.03906 74.2715V74.0078C5.03906 73.6367 4.87305 73.4512 4.54102 73.4512H3.54492C3.52539 73.4512 3.51562 73.5098 3.51562 73.627L3.36914 73.6562L1.31836 73.5684L0.585938 73.6562L0.498047 73.5391V72.1621C0.498047 71.3223 0.595703 70.9023 0.791016 70.9023C1.06445 70.6875 1.49414 70.5801 2.08008 70.5801C2.99805 70.3457 4.0332 70.2285 5.18555 70.2285ZM5.83008 70.4629L4.45312 70.5801L4.54102 70.668H5.18555C5.6543 70.668 5.88867 70.6191 5.88867 70.5215L5.83008 70.4629ZM2.98828 70.7559C3.02734 70.8535 3.39844 70.9414 4.10156 71.0195H4.33594L4.39453 70.9023C4.12109 70.6875 3.93555 70.5801 3.83789 70.5801C3.27148 70.6191 2.98828 70.6777 2.98828 70.7559ZM7.5 71.0781L7.44141 71.1367C7.79297 71.3125 7.99805 71.4004 8.05664 71.4004H8.14453L8.23242 71.3418C8.05664 71.166 7.86133 71.0781 7.64648 71.0781H7.5ZM1.43555 71.3711L1.34766 71.4883V71.5469C1.38672 71.7031 1.41602 71.7812 1.43555 71.7812H1.52344C1.64062 71.6641 1.75781 71.6055 1.875 71.6055L2.25586 71.6348V71.5469L1.72852 71.3711H1.43555ZM8.81836 71.4297H8.70117V71.5176H8.81836V71.4297ZM10.0781 71.4883H9.90234V71.5176C10.0391 71.6152 10.8008 71.957 12.1875 72.543L12.5098 72.8066H12.5977C12.5977 72.5332 11.8848 72.1035 10.459 71.5176L10.0781 71.4883ZM5.12695 71.957V71.9863C5.12695 72.1816 5.625 72.2793 6.62109 72.2793C6.81641 72.084 6.96289 71.9863 7.06055 71.9863C7.45117 71.9863 7.64648 71.957 7.64648 71.8984V71.8105L7.44141 71.7812H7.35352L6.38672 71.8984C6.19141 71.8008 6.03516 71.752 5.91797 71.752H5.83008C5.36133 71.7715 5.12695 71.8398 5.12695 71.957ZM9.69727 72.0449H9.60938V72.0742C9.6875 72.1523 10.127 72.3574 10.9277 72.6895H11.0156L11.1328 72.543C11.1328 72.4062 10.6543 72.2402 9.69727 72.0449ZM2.05078 72.1621L1.96289 72.25L2.05078 72.3379H2.13867L2.19727 72.25L2.13867 72.1621H2.05078ZM11.6602 72.6309H11.4551C11.4551 72.7676 11.3477 72.8359 11.1328 72.8359V72.9531C11.1523 72.9922 11.4844 73.168 12.1289 73.4805L12.0703 73.5684C12.1094 73.6855 12.2266 73.7832 12.4219 73.8613H12.5977L12.8613 73.7441L13.1543 73.8027V73.7441C13.1543 73.7246 12.9395 73.6465 12.5098 73.5098V73.4805C12.5098 73.4414 12.5391 73.4219 12.5977 73.4219L12.6562 73.3633V73.334C12.2656 72.9434 11.9336 72.709 11.6602 72.6309ZM1.69922 72.8066L1.61133 72.8945L2.02148 72.9824H2.05078V72.9531C1.99219 72.8555 1.9043 72.8066 1.78711 72.8066H1.69922ZM2.34375 73.0117L2.43164 73.1289H2.60742C2.70508 73.1289 2.77344 73.0801 2.8125 72.9824V72.9238H2.63672C2.48047 72.9238 2.38281 72.9531 2.34375 73.0117ZM7.00195 73.9785L7.11914 75.6484C7.11914 76.8398 7.05078 77.4355 6.91406 77.4355C6.83594 77.084 6.77734 76.9082 6.73828 76.9082C6.66016 76.9277 6.62109 77.0059 6.62109 77.1426V77.875C6.62109 78.1484 6.66992 78.2852 6.76758 78.2852L6.97266 78.2266L7.00195 78.2852C6.94336 78.5586 6.91406 79.0859 6.91406 79.8672L7.03125 84.0859C7.03125 86.5469 6.81641 88.3633 6.38672 89.5352V89.7109C6.38672 89.8672 7.19727 90.0332 8.81836 90.209C9.85352 90.209 11.084 89.8184 12.5098 89.0371C13.6816 88.002 14.3262 87.2695 14.4434 86.8398C14.6973 86.4297 14.9707 85.3359 15.2637 83.5586V83.2949C15.2637 81.4004 15.1465 80.2383 14.9121 79.8086L13.6816 76.8789C12.959 75.7656 12.2852 75.082 11.6602 74.8281C9.19922 73.8516 7.90039 73.3633 7.76367 73.3633C7.25586 73.5977 7.00195 73.8027 7.00195 73.9785ZM5.41992 73.5391C5.41992 73.6562 5.49805 73.7148 5.6543 73.7148H5.71289L5.85938 73.5391V73.4512H5.47852C5.43945 73.4512 5.41992 73.4805 5.41992 73.5391ZM10.5469 73.5684V73.627C10.7812 73.8809 10.9961 74.0078 11.1914 74.0078V73.8613C10.8789 73.666 10.6641 73.5684 10.5469 73.5684ZM13.125 74.1543V74.2129C13.1641 74.291 13.291 74.3984 13.5059 74.5352H13.5938V74.5059C13.5938 74.3496 13.4375 74.2324 13.125 74.1543ZM15.1465 74.5938H15.1758C15.3906 74.6328 15.7324 75.1309 16.2012 76.0879C16.4746 76.3613 16.6113 76.5566 16.6113 76.6738V76.7617H16.5527C16.3574 76.7617 16.1133 76.459 15.8203 75.8535C15.8203 75.6777 15.5957 75.2578 15.1465 74.5938ZM13.3301 74.8867V75.0332C13.4277 75.1895 13.7012 75.4336 14.1504 75.7656H14.2383L14.2969 75.6777V75.5898C13.9453 75.0234 13.75 74.7402 13.7109 74.7402H13.5938C13.4766 74.7402 13.3887 74.7891 13.3301 74.8867ZM5.27344 75.7949L5.33203 76.1172V76.4102L5.41992 76.5273H5.47852C5.55664 76.5273 5.5957 76.3027 5.5957 75.8535C5.5957 75.4043 5.55664 75.0625 5.47852 74.8281H5.41992C5.36133 74.8281 5.3125 75.1504 5.27344 75.7949ZM16.5527 76.9668V76.9082H16.6113C16.9629 77.3574 17.1387 77.7383 17.1387 78.0508V78.1387H17.0801C16.9238 78.1387 16.748 77.748 16.5527 76.9668ZM15.0293 77.0547H14.8828V77.4062C15.0781 78.3047 15.4102 79.0176 15.8789 79.5449H15.9375C15.625 78.3535 15.3223 77.5234 15.0293 77.0547ZM5.18555 77.2598H5.12695L5.03906 77.6113V77.6992H5.12695L5.18555 77.4062V77.2598ZM6.91406 77.6992L7.00195 77.6699H7.06055V77.7578L7.00195 77.8457H6.91406V77.6992ZM4.89258 81.9766V82.3281C4.89258 82.8555 4.92188 83.2656 4.98047 83.5586H5.09766L5.33203 80.834C5.33203 80.1113 5.26367 79.2129 5.12695 78.1387C4.9707 78.1387 4.89258 79.418 4.89258 81.9766ZM16.9043 79.4277L16.8164 79.4863V79.5449L16.8457 79.6035C16.7676 79.7598 16.7285 79.8965 16.7285 80.0137L16.9922 80.8926H17.1094C17.2266 80.6387 17.2852 80.4434 17.2852 80.3066V80.1016C17.1875 79.6523 17.0703 79.4277 16.9336 79.4277H16.9043ZM15.9375 81.5664H15.8203L15.7617 81.7422V82.2988C15.7617 83.002 15.6641 83.6758 15.4688 84.3203V84.4082L15.5273 84.4375H15.6445C15.8008 84.4375 15.9473 84.1641 16.084 83.6172C16.1621 83.5391 16.2012 83.4121 16.2012 83.2363V82.6797C16.2012 81.9375 16.1133 81.5664 15.9375 81.5664ZM18.1055 84.8184V84.7012H18.1348L18.1934 84.9355C18.1934 85.1113 17.9492 85.6875 17.4609 86.6641L17.3438 86.752H17.2852C17.3828 86.4004 17.6562 85.7559 18.1055 84.8184ZM15.7031 86.166V86.1953H15.7617C15.8984 86.1953 16.0938 86.0684 16.3477 85.8145V85.7852C16.3477 85.6094 16.2988 85.502 16.2012 85.4629H16.1719C15.8594 85.7754 15.7031 86.0098 15.7031 86.166ZM6.5918 86.1953H6.47461L6.44531 86.5762V86.6348L6.47461 86.8105H6.50391L6.5918 86.7227V86.1953ZM14.4141 88.2754V88.4219H14.5312C15.5273 87.6016 16.0742 86.9473 16.1719 86.459V86.4004C15.4297 86.752 14.8438 87.377 14.4141 88.2754ZM5.30273 88.627L5.33203 88.832H5.39062C5.54688 88.832 5.63477 88.7637 5.6543 88.627C5.57617 87.6699 5.49805 87.1914 5.41992 87.1914C5.3418 87.1914 5.30273 87.6699 5.30273 88.627ZM13.3008 88.7441L13.3301 88.832H13.4473C13.5254 88.8125 13.6035 88.7441 13.6816 88.627V88.5098C13.6816 88.4902 13.6426 88.4805 13.5645 88.4805C13.4668 88.4805 13.3789 88.5684 13.3008 88.7441ZM13.0957 88.7734L12.9785 88.8613L13.0371 88.9492H13.125L13.2129 88.8613V88.7734H13.0957ZM10.4297 90.7949V90.8535H10.4883C11.3281 90.8535 12.6465 90.2773 14.4434 89.125L14.502 89.0664V89.0371C13.252 89.4277 12.373 89.7988 11.8652 90.1504C11.0645 90.4043 10.5859 90.6191 10.4297 90.7949ZM2.02148 89.5352L1.9043 89.6523L1.96289 89.8574C1.8457 90.1895 1.78711 90.4434 1.78711 90.6191V90.707L1.9043 90.8535H1.96289L2.08008 90.707V90.3262C2.08008 90.1113 2.1582 90.0039 2.31445 90.0039H2.63672L2.72461 89.9453V89.8281C2.72461 89.6328 2.53906 89.5352 2.16797 89.5352H2.02148ZM3.54492 89.9453L3.45703 90.0039V90.0625L3.54492 90.1504H3.7207L3.80859 90.0918C3.76953 89.9941 3.68164 89.9453 3.54492 89.9453ZM3.89648 90.6191V90.6777C3.89648 90.7949 4.4043 91 5.41992 91.293L6.26953 91.3809C6.54297 91.3418 6.67969 91.293 6.67969 91.2344V91.1465C5.07812 90.7949 4.15039 90.6191 3.89648 90.6191ZM2.43164 90.6191L2.34375 90.707L2.43164 90.7949L2.51953 90.6777V90.6191H2.43164ZM7.44141 90.9414L7.35352 91C7.35352 91.0977 7.71484 91.1562 8.4375 91.1758H8.81836L8.87695 91.1465V91.0879C8.87695 90.9902 8.66211 90.9414 8.23242 90.9414H7.44141ZM10.6055 91.0879H10.9863L11.1035 90.9707V90.9414H10.9863C10.7324 90.9609 10.6055 91.0098 10.6055 91.0879ZM7.14844 91.2344H7.03125V91.293H7.14844V91.2344ZM8.4375 91.7031L7.44141 91.8203V91.9082C7.79297 92.0254 8.05664 92.084 8.23242 92.084H8.37891C8.65234 92.084 8.79883 91.9961 8.81836 91.8203C8.74023 91.7422 8.61328 91.7031 8.4375 91.7031ZM27.7148 71.5176C28.8672 71.6738 29.4434 71.8887 29.4434 72.1621L30.8496 76.3516L31.7871 79.6914C32.2168 81.6836 32.7734 83.832 33.457 86.1367C33.4961 86.1172 33.5352 86.1074 33.5742 86.1074V86.4004H33.5449C33.5645 86.459 33.584 86.5273 33.6035 86.6055C33.6426 86.6836 33.6621 86.7422 33.6621 86.7812L34.2188 87.9824L34.3652 88.7148L34.3066 89.0371C34.5215 89.1934 34.7656 89.2812 35.0391 89.3008H35.625H35.6543C35.8691 89.3398 35.9961 89.3887 36.0352 89.4473L35.8594 89.7988L35.8887 90.2969C35.8887 90.5117 35.791 90.7168 35.5957 90.9121H35.4785C35.3223 90.7559 35.1953 90.6777 35.0977 90.6777H35.0391C34.8438 90.6777 34.7363 90.7363 34.7168 90.8535C34.7168 90.9121 34.8926 90.9512 35.2441 90.9707V91.0586C35.2441 91.1367 35.127 91.1855 34.8926 91.2051L34.5117 91.0879H34.2188L32.4023 91.2637C31.9922 91.2637 31.4844 91.0195 30.8789 90.5312L31.1133 90.2969V90.1797L30.8203 89.5645C30.8203 89.3301 31.1816 89.2129 31.9043 89.2129L31.9336 89.1543V89.0371C31.9336 88.1582 31.5332 87.1719 30.7324 86.0781H30.7031C28.6719 86.2344 26.2988 86.4395 23.584 86.6934H22.9395C22.8613 86.7715 22.5977 87.5527 22.1484 89.0371C22.2266 89.1152 22.334 89.1543 22.4707 89.1543H23.0566C23.7402 89.1543 24.3262 89.4277 24.8145 89.9746V90.0039C24.8145 90.1406 24.5605 90.4043 24.0527 90.7949C24.0527 91.0098 22.5684 91.1172 19.5996 91.1172C19.1113 91.0977 18.8672 91.0391 18.8672 90.9414L18.9844 90.5605V90.5312C18.9844 90.4531 18.9062 90.2773 18.75 90.0039C18.75 89.8867 18.9258 89.7402 19.2773 89.5645L19.3066 89.4766V89.0371C19.3066 88.8613 19.4043 88.7734 19.5996 88.7734L19.7168 88.8906L19.5996 89.2422L19.6289 89.2715H19.6582C19.8926 88.9395 20.0098 88.7051 20.0098 88.5684V88.4512C20.0098 88.334 19.9805 88.2754 19.9219 88.2754C20.1172 87.9238 20.2734 87.4551 20.3906 86.8691L21.9141 82.6504L22.4707 81.2734C22.4707 81.0977 22.6465 80.8047 22.998 80.3945V80.3359L22.9102 80.043C23.125 79.8867 23.2324 79.7598 23.2324 79.6621L23.1445 79.5742C23.1445 79.3789 23.2617 79.1738 23.4961 78.959L23.4668 78.7539L24.8145 74.7988C25.1465 74.2129 25.4492 73.5098 25.7227 72.6895C25.7812 72.6895 25.9277 72.5039 26.1621 72.1328C26.9629 71.7422 27.4805 71.5371 27.7148 71.5176ZM23.4961 84.5547V84.7012L23.584 84.7598C26.1426 84.3496 28.1543 84.1445 29.6191 84.1445H30.8203L30.9082 84.0273V83.998C30.8105 83.2949 30.6348 82.9434 30.3809 82.9434L28.5352 77.377C28.3203 76.5762 28.1055 75.9316 27.8906 75.4434C27.793 75.209 27.6758 75.043 27.5391 74.9453C27.5391 75.1406 27.5293 75.3457 27.5098 75.5605C26.1426 78.2949 25.1562 80.1504 24.5508 81.127C24.2383 81.7324 23.8867 82.875 23.4961 84.5547ZM34.6289 90.1797V90.2383H34.6582C35.0488 90.2383 35.2441 90.1797 35.2441 90.0625L35.0977 89.9453C34.9414 89.9453 34.7852 90.0234 34.6289 90.1797ZM27.4219 74.3887H27.4512C27.627 74.3887 27.7148 74.3105 27.7148 74.1543V74.0371H27.627C27.4902 74.1152 27.4219 74.2324 27.4219 74.3887ZM28.3008 71.957H28.1543V72.1035L28.2422 72.1914H28.4766L28.5352 72.1328V72.1035C28.4961 72.0059 28.418 71.957 28.3008 71.957ZM28.6523 84.6133L28.5938 84.7305L28.6523 84.7891H28.7988C28.9746 84.7891 29.0723 84.75 29.0918 84.6719V84.6133H28.6523ZM33.252 87.0742H32.4023V87.1914L33.252 87.1328V87.0742ZM21.9434 86.9277H21.8848L21.8555 87.1035L21.8848 87.25H21.9434L22.0312 87.1621V86.957L21.9434 86.9277ZM32.168 91.0879V91.1465H32.2852C32.4023 91.1465 32.4707 91.1074 32.4902 91.0293L32.4316 90.9414C32.2949 90.9414 32.207 90.9902 32.168 91.0879ZM20.8008 87.1328L20.5957 87.3086V87.3965C20.752 87.3965 20.8398 87.3281 20.8594 87.1914L20.8008 87.1328ZM30.4688 83.6465L30.5859 83.5L30.6152 83.5293V83.7637L30.5273 83.8516L30.4688 83.6465ZM24.082 80.1016L23.9941 79.5156L23.9648 79.6914V79.7793H23.9941C24.0527 80.1113 24.082 80.2383 24.082 80.1602V80.1016ZM33.7793 88.7441H33.75V88.9492L33.8379 89.0371H33.8672V88.832L33.7793 88.7441ZM20.5957 89.0371L20.4785 89.0664V89.1543L20.5664 89.2422H20.5957L20.6543 89.1543L20.5957 89.0371ZM27.5391 72.9531H27.5098V73.0117L27.5684 73.0996H27.627V73.0117L27.5391 72.9531ZM26.4551 85.1992H26.3672V85.2871H26.4551V85.1992ZM23.7891 80.4238H23.7598V80.5117H23.7891V80.4238ZM51.4746 70.3457H51.7676C51.9824 70.3457 52.0898 70.5996 52.0898 71.1074L52.1484 71.1953L52.1777 71.2246L52.207 71.3418H52.2363C52.0605 71.8887 51.7773 72.1621 51.3867 72.1621C51.3867 72.2598 51.0352 72.3184 50.332 72.3379L50.2734 72.4258C50.8398 79.7305 51.123 84.5645 51.123 86.9277L51.2109 89.7695C51.2109 90.4922 51.0742 90.8535 50.8008 90.8535C50.7031 90.873 50.4199 90.8828 49.9512 90.8828H49.0137C48.5254 90.8828 48.2812 90.7852 48.2812 90.5898C48.2617 90.2188 48.0078 89.623 47.5195 88.8027C47.2656 87.4355 46.9531 86.498 46.582 85.9902C46.582 85.9316 46.4355 85.7363 46.1426 85.4043C45.127 83.7051 44.1797 81.9668 43.3008 80.1895C43.125 79.9746 42.7051 79.1641 42.041 77.7578C41.4746 76.7422 40.8887 75.8535 40.2832 75.0918H40.166V75.8242C40.166 76.4102 40.2246 77.6211 40.3418 79.457C40.3418 80.8242 40.1855 82.9727 39.873 85.9023V86.3125L40.0488 86.9277L39.9609 89.0371L40.1074 89.7988L39.9609 90.3848V90.502H39.873C39.7754 90.4043 39.6777 90.3555 39.5801 90.3555H39.4043V90.3848C39.4824 90.5215 39.5215 90.6387 39.5215 90.7363V90.8828C39.6582 90.8828 39.7559 90.834 39.8145 90.7363C39.9316 90.7949 39.9902 90.873 39.9902 90.9707C39.9902 91.3027 39.8535 91.4688 39.5801 91.4688L37.0898 91.5273C36.543 91.4492 36.2695 91.2246 36.2695 90.8535C36.1719 90.1699 36.084 89.6816 36.0059 89.3887C36.0059 89.291 36.4746 89.0566 37.4121 88.6855L37.4414 88.6562V87.6895C37.4414 87.4551 37.5 87.2891 37.6172 87.1914V87.1035C37.4805 87.1035 37.4121 86.459 37.4121 85.1699V84.8184C37.8223 81.0488 38.0273 76.6055 38.0273 71.4883C38.0469 70.8828 38.1055 70.5801 38.2031 70.5801C38.2031 70.502 38.6035 70.4434 39.4043 70.4043H39.7266C40.1367 70.4043 40.6934 71.0098 41.3965 72.2207C42.2168 73.2754 42.793 74.0371 43.125 74.5059L44.3848 76.6152C45.3418 77.7285 46.1328 79.252 46.7578 81.1855C47.3828 82.5332 47.7832 83.207 47.959 83.207C48.2129 82.9531 48.3398 82.5625 48.3398 82.0352L48.2812 80.834L48.3691 76.7617C48.252 75.9805 48.1934 75.4043 48.1934 75.0332V74.916C48.1934 73.8027 48.2617 73.041 48.3984 72.6309C48.3984 72.4746 47.8906 72.3965 46.875 72.3965L46.7871 72.2793V71.3125C46.7871 70.6875 47.0605 70.375 47.6074 70.375C49.0918 70.3555 50.3809 70.3457 51.4746 70.3457ZM51.7383 70.668H51.416V70.7559L51.6504 70.8145H51.6797L51.7676 70.6973L51.7383 70.668ZM39.5215 70.8145L39.4336 70.8438C39.4922 71.0977 39.6191 71.2246 39.8145 71.2246L39.873 71.1367V70.9316L39.7266 70.8145H39.5215ZM50.8594 71.4297H50.7422V71.5469H50.8594V71.4297ZM47.4316 71.6934L47.373 71.7812L47.4902 71.8984H47.5488L48.0762 71.8398C48.0371 71.7422 47.959 71.6934 47.8418 71.6934H47.4316ZM48.8086 72.8945V73.0117C48.8672 73.1484 48.9355 73.2168 49.0137 73.2168L49.1016 73.1289V72.7188L49.0137 72.6309H48.9844C48.8672 72.6504 48.8086 72.7383 48.8086 72.8945ZM39.375 74.5352L39.4043 74.5938H39.4336C39.4922 74.5938 39.5215 74.3105 39.5215 73.7441V73.0117C39.4238 73.0117 39.375 73.5195 39.375 74.5352ZM40.2246 73.334L40.1367 73.4219V73.7148C40.1367 73.8711 40.2051 74.0566 40.3418 74.2715H40.459C40.3613 73.6465 40.293 73.334 40.2539 73.334H40.2246ZM41.3086 74.7402H41.25V74.7988C41.6211 75.7363 41.9531 76.4785 42.2461 77.0254C42.3633 77.1621 42.4219 77.2598 42.4219 77.3184H42.5391V77.2305C42.4023 76.5078 42.168 75.9121 41.8359 75.4434L41.3086 74.7402ZM43.2129 76.293H43.0664V76.3809C43.1445 76.7324 43.3691 77.1328 43.7402 77.582H43.8281C43.5547 76.7227 43.3496 76.293 43.2129 76.293ZM42.8906 77.7871L42.7148 77.6992L42.6855 77.7285V77.7578C42.959 78.5391 43.5547 79.7012 44.4727 81.2441H44.5312C44.4727 80.9316 43.9258 79.7793 42.8906 77.7871ZM45.1465 79.2227H45.1172C45.332 79.8281 45.5566 80.2676 45.791 80.541L45.8496 80.5117C45.498 79.7109 45.2637 79.2812 45.1465 79.2227ZM46.084 80.9219H46.0254V80.9805C46.1621 81.5859 46.3574 82.0254 46.6113 82.2988H46.6699C46.6699 82.2207 46.4746 81.7617 46.084 80.9219ZM44.707 81.7422L44.6777 81.7715C44.9316 82.4941 45.1172 82.8555 45.2344 82.8555L45.3223 82.7676V82.709C45.3223 82.5918 45.1172 82.2695 44.707 81.7422ZM38.5547 84.9355H38.584C38.7012 84.9355 38.7695 84.5449 38.7891 83.7637V83.4707H38.7305C38.7109 83.4707 38.6523 83.959 38.5547 84.9355ZM46.3184 84.4082H46.1719V84.6133L46.5234 85.0527H46.582V84.7305L46.3184 84.5254V84.4082ZM49.4238 85.4336C49.4238 85.7266 49.4629 85.873 49.541 85.873C49.6191 85.8535 49.6582 85.7656 49.6582 85.6094L49.6289 84.8184H49.5703C49.4922 84.8184 49.4434 85.0234 49.4238 85.4336ZM38.3496 85.7266V86.1367H38.4668C38.5254 86.1367 38.584 85.9805 38.6426 85.668C38.623 85.4922 38.5742 85.4043 38.4961 85.4043C38.3984 85.4434 38.3496 85.5508 38.3496 85.7266ZM50.3027 87.3379H50.2148V87.4551H50.3027V87.3379ZM47.666 87.7188H47.5488C47.5488 87.8945 47.6855 88.0898 47.959 88.3047V88.2754C47.959 88.2168 47.8613 88.0312 47.666 87.7188ZM49.3066 88.1875H49.2773V88.2461L49.3066 88.3047H49.4238V88.2461L49.3066 88.1875ZM38.4961 88.5098H38.4668V88.6562L38.4961 88.7441H38.5547L38.6426 88.6562V88.627L38.4961 88.5098ZM48.252 88.9199H48.1641V88.9785L48.252 89.0957H48.2812L48.252 88.9199ZM37.0898 89.125L36.9141 89.2129V89.3008H37.4414L37.5 89.2715V89.2129L37.4414 89.125H37.0898ZM50.8594 89.418H50.8008V89.5645L50.8887 89.6816H50.9473V89.5645L50.8594 89.418ZM38.4082 89.8281L38.291 89.9453V90.0039H38.3496L38.4668 89.8867V89.8281H38.4082ZM36.4746 90.0625C36.5332 90.1602 36.6211 90.209 36.7383 90.209H36.8262L37.1777 90.1211V90.0039L36.7383 89.9453C36.5625 89.9844 36.4746 90.0234 36.4746 90.0625ZM50.3027 90.0625H50.2148V90.1211L50.3027 90.0625ZM37.0312 90.9414L36.9727 91.0293C36.9922 91.1074 37.0605 91.1465 37.1777 91.1465C37.3535 91.127 37.4414 91.0879 37.4414 91.0293L37.3828 90.9414H37.0312ZM65.5078 72.3086C65.957 72.3086 66.1816 72.5039 66.1816 72.8945C66.084 75.5117 65.9668 76.8203 65.8301 76.8203C65.8301 77.0938 65.4785 77.2695 64.7754 77.3477H64.6582C64.1699 77.3477 63.9258 77.1621 63.9258 76.791L64.0137 76.4395C64.0137 76.3223 63.5645 75.8828 62.666 75.1211C61.9629 74.6523 61.0059 74.418 59.7949 74.418C58.7402 74.418 57.6758 75.043 56.6016 76.293C54.8047 78.0508 53.9062 79.6621 53.9062 81.127V81.1562L54.2285 82.709C54.2285 83.2363 54.5801 84.3398 55.2832 86.0195C55.2832 86.1367 55.5957 86.5664 56.2207 87.3086C56.2793 87.6602 56.4844 87.9922 56.8359 88.3047C57.4023 88.8125 58.916 89.0664 61.377 89.0664C62.1387 89.0664 63.0078 88.627 63.9844 87.748C64.2773 87.5723 64.4238 86.5957 64.4238 84.8184V84.4668C64.4238 84.2715 64.2188 84.1738 63.8086 84.1738C62.5 84.0957 61.8457 83.9492 61.8457 83.7344L61.8164 83.5C61.9336 82.7188 62.1582 82.3281 62.4902 82.3281L64.7754 82.3574L67.5586 82.0938C67.793 82.1523 67.9102 82.2402 67.9102 82.3574L67.8223 83.3242V83.5586C67.6855 84.0859 67.4414 84.3496 67.0898 84.3496L66.2402 84.291V84.4082C66.377 84.4082 66.4453 85.5898 66.4453 87.9531C66.4453 90.6094 66.5332 92.0254 66.709 92.2012H66.6504L66.5332 92.2305H65.2441C65.127 92.2305 64.9512 92.2793 64.7168 92.377C64.3848 92.377 64.2188 92.0742 64.2188 91.4688C64.2188 91.0391 64.1211 90.8242 63.9258 90.8242C63.8281 90.8242 63.4668 91.0684 62.8418 91.5566C62.2363 91.791 61.7285 91.9082 61.3184 91.9082H61.1133C59.8633 91.9082 58.5352 91.5859 57.1289 90.9414C56.7969 90.6094 56.3672 90.3262 55.8398 90.0918C55.2734 89.6426 54.8145 89.1445 54.4629 88.5977C53.7402 87.5234 53.3789 86.8691 53.3789 86.6348C52.9883 85.9707 52.6758 85.0137 52.4414 83.7637L52.5 81.0391H52.5293L52.793 81.3027C52.832 81.3027 52.8711 81.1855 52.9102 80.9512C52.8711 80.7168 52.8125 80.5996 52.7344 80.5996C52.6758 80.5996 52.5781 80.6387 52.4414 80.7168H52.4121C52.4316 79.8574 52.627 78.9785 52.998 78.0801C53.5449 77.3965 54.1992 76.4492 54.9609 75.2383C55.0977 75.1406 55.2051 74.9648 55.2832 74.7109C55.5371 74.418 56.3965 73.8809 57.8613 73.0996C58.1738 72.9629 58.8086 72.8262 59.7656 72.6895H59.7949C60.5176 72.6895 61.8945 72.9727 63.9258 73.5391H63.9844C64.082 73.4414 64.1309 73.3242 64.1309 73.1875V73.041L64.0723 72.8359C64.248 72.4844 64.7266 72.3086 65.5078 72.3086ZM55.1074 77.4355H55.1953C55.9375 76.5371 56.3086 76.0391 56.3086 75.9414H56.2207C55.5371 76.5664 55.166 77.0645 55.1074 77.4355ZM54.7559 76.293H54.8145C54.9316 76.2148 55.0098 76.1465 55.0488 76.0879V76H55.0195C54.8438 76.0781 54.7559 76.1758 54.7559 76.293ZM53.9941 77.8164L53.9062 77.9336V77.9922H53.9648L54.082 77.9043V77.8164H53.9941ZM67.3828 82.5332L67.2949 82.6211V82.709L67.3828 82.7676L67.4707 82.6504V82.6211L67.4121 82.5332H67.3828ZM64.248 88.334L64.1602 88.4219L64.2188 88.5098H64.3066L64.4238 88.4219L64.3359 88.334H64.248ZM61.8457 89.4473C61.8457 89.5059 61.875 89.5352 61.9336 89.5352C62.0508 89.5352 62.1875 89.4473 62.3438 89.2715V89.2422H62.2852C62.0703 89.2422 61.9238 89.3105 61.8457 89.4473ZM57.1582 89.3594H57.041V89.418C57.041 89.5352 57.2852 89.6328 57.7734 89.7109H58.125L58.1836 89.623C57.7148 89.4473 57.373 89.3594 57.1582 89.3594ZM64.6582 90.8242L64.541 90.9121V91L64.5996 91.0586C64.7168 91.0195 64.7754 90.9805 64.7754 90.9414V90.8828L64.6582 90.8242ZM62.1973 91.3809V91.4688H62.2266C62.4414 91.4688 62.6758 91.3711 62.9297 91.1758L62.9004 91.0586H62.7539C62.5391 91.0586 62.3535 91.166 62.1973 91.3809ZM68.6719 70.8438L74.3848 70.7266C78.8184 70.7852 81.0352 70.8828 81.0352 71.0195C81.0352 71.0781 80.9766 71.1074 80.8594 71.1074V71.1953H80.918C81.1133 71 81.6016 70.8535 82.3828 70.7559L82.5293 70.7266C82.5879 70.8828 82.6172 71.0098 82.6172 71.1074C82.6172 72.2207 82.6758 73.1973 82.793 74.0371L82.2363 75.1797C82.002 75.2969 81.7773 75.3555 81.5625 75.3555C80.9375 75.3555 80.625 75.1699 80.625 74.7988V74.7402C80.6641 74.6035 80.7617 74.4473 80.918 74.2715C80.7227 74.2129 80.625 74.0469 80.625 73.7734C80.625 73.4219 80.4785 73.2461 80.1855 73.2461C80.1855 73.0898 80.166 73.0117 80.127 73.0117H79.3359V73.041C79.3359 73.0996 79.4531 73.1582 79.6875 73.2168V73.334L79.4531 73.3926L75.8496 73.3047H73.9746C72.7051 73.3047 72.0703 73.3828 72.0703 73.5391C72.168 73.5391 72.2754 75.375 72.3926 79.0469C72.5293 79.1836 72.6465 79.252 72.7441 79.252H72.9492L74.4141 79.1641L76.7871 79.457C76.9824 79.457 77.0801 79.1738 77.0801 78.6074C77.0801 78.3535 77.3242 78.1875 77.8125 78.1094L78.0176 77.9629C78.2715 77.9629 78.3984 78.9688 78.3984 80.9805V82.1816C78.3984 82.3574 78.3496 82.4648 78.252 82.5039C78.0176 82.3867 77.6367 82.2793 77.1094 82.1816C77.0508 82.1816 76.9531 81.8789 76.8164 81.2734C76.8164 81.0781 76.0645 80.9805 74.5605 80.9805C73.1738 80.9805 72.4805 81.0391 72.4805 81.1562L72.4512 81.625L72.627 84.6133C72.5879 85.7461 72.5 86.9082 72.3633 88.0996L72.4805 88.1582C73.3203 88.0996 74.4141 88.002 75.7617 87.8652H75.791C76.8066 87.8652 78.2031 87.9727 79.9805 88.1875H80.0391C80.1953 88.1875 80.2832 88.0898 80.3027 87.8945H80.4785L80.7715 88.1582L80.8008 87.9824C80.8008 87.6309 80.7324 87.4551 80.5957 87.4551L80.3906 87.5723C80.1953 87.4355 80.0488 87.2207 79.9512 86.9277C79.9512 86.7129 80.3125 86.5664 81.0352 86.4883C81.0938 86.4883 81.3379 86.6055 81.7676 86.8398C81.9824 86.8398 82.0898 87.0449 82.0898 87.4551C82.0898 88.8223 82.1387 89.9453 82.2363 90.8242L82.1484 91.1172H82.002C81.8652 91 81.3574 90.9121 80.4785 90.8535C80.4785 90.7754 77.0117 90.668 70.0781 90.5312C69.6484 90.5312 69.4336 90.3555 69.4336 90.0039C69.3555 89.9258 69.3164 89.5742 69.3164 88.9492L69.4336 88.3047V88.0117L69.5215 87.8945H69.6094C69.7852 88.0703 69.9316 88.1582 70.0488 88.1582H70.1367C70.5469 88.0605 70.752 87.9141 70.752 87.7188L70.5762 81.0977C70.5762 80.9609 70.4688 80.707 70.2539 80.3359C70.3125 80.3359 70.3906 78.4707 70.4883 74.7402C70.5469 74.623 70.5762 74.4277 70.5762 74.1543V74.0371C70.5762 73.5098 70.2637 73.2461 69.6387 73.2461L68.9062 73.041L68.5254 73.0996C68.2129 73.0996 68.0566 72.6602 68.0566 71.7812L68.0273 71.752C68.0469 71.1465 68.252 70.8438 68.6426 70.8438H68.6719ZM68.8184 71.166H68.7012V71.1953L68.9941 71.6348C69.1309 71.4395 69.248 71.3418 69.3457 71.3418L69.5508 71.3711L69.6387 71.3418C69.4434 71.2246 69.1699 71.166 68.8184 71.166ZM70.3711 71.3418C70.2344 71.3613 70.166 71.4004 70.166 71.459C70.166 71.5176 70.1953 71.5469 70.2539 71.5469L70.5176 71.459V71.3418H70.3711ZM73.0078 71.3711H72.9199V71.4297H73.0078V71.3711ZM70.7812 71.4883L70.6934 71.6348V71.6641C70.7324 71.7812 70.8398 71.8398 71.0156 71.8398H71.3672V71.7227C71.1133 71.5664 70.9277 71.4883 70.8105 71.4883H70.7812ZM72.2168 71.752H72.0703V71.7812C72.1094 71.8789 72.1973 71.9277 72.334 71.9277H72.4805V71.8984C72.4414 71.8008 72.3535 71.752 72.2168 71.752ZM79.8633 71.8398L78.8086 71.8691V71.9277L80.4785 72.1328C80.5371 72.1133 80.5859 72.0547 80.625 71.957V71.8691L79.8633 71.8398ZM73.3887 71.8984C73.3887 71.9766 73.5645 72.0156 73.916 72.0156C73.916 71.9375 73.7402 71.8984 73.3887 71.8984ZM72.0117 72.6895C72.0508 72.8457 72.1484 72.9238 72.3047 72.9238H72.334C73.0957 72.9043 73.4766 72.8262 73.4766 72.6895C73.4766 72.5723 73.2324 72.5137 72.7441 72.5137H72.6562C72.2266 72.5137 72.0117 72.5723 72.0117 72.6895ZM74.4434 72.6602L74.3848 72.6895C74.4043 72.7676 74.4727 72.8066 74.5898 72.8066H74.6191C74.7559 72.8066 74.834 72.7676 74.8535 72.6895L74.7656 72.6602H74.4434ZM70.3711 72.748H69.6973V72.8066H70.3711V72.748ZM81.0352 73.8613V73.8906L81.123 73.9785C81.1816 73.9785 81.2305 73.8711 81.2695 73.6562L81.2402 73.4512H81.1523C81.0742 73.4512 81.0352 73.5879 81.0352 73.8613ZM81.6504 74.5645L81.709 74.5938L81.7969 74.6816V74.7109C81.9141 74.7109 81.9727 74.6035 81.9727 74.3887V74.3301H81.8555C81.7969 74.3691 81.7285 74.4473 81.6504 74.5645ZM71.543 74.4473L71.4844 74.5645V74.7988C71.5234 74.9551 71.6016 75.0332 71.7188 75.0332L71.7773 74.8867V74.8574C71.7773 74.6426 71.6992 74.5059 71.543 74.4473ZM71.7188 75.9121L71.543 76.0586V76.2637L71.6602 76.3809H71.748L71.8066 76.293L71.7188 75.9121ZM72.6562 79.6914L72.5684 79.8086V79.8379H72.8027V79.7793L72.6855 79.6914H72.6562ZM74.707 79.9844H74.6191V80.0723L74.707 80.1309H74.7656V80.0723L74.707 79.9844ZM75.1172 80.0723H75V80.1309H75.1172V80.0723ZM75.498 80.0723H75.3516L75.4688 80.1895H75.5859V80.1309L75.498 80.0723ZM71.2793 82.0059H71.1621L71.1035 82.1816V82.4453H71.1914L71.2793 82.416V82.0059ZM71.9238 84.291H71.8359V84.3789H71.9238V84.291ZM71.8945 86.3418H71.8066L71.7773 86.5176V86.8984L71.8066 86.9277V86.957C71.9434 86.957 72.0117 86.8496 72.0117 86.6348C72.0117 86.459 71.9727 86.3613 71.8945 86.3418ZM81.3574 87.25L81.4453 87.3379C81.543 87.2988 81.5918 87.2598 81.5918 87.2207V87.1621L81.5332 87.0742C81.416 87.1133 81.3574 87.1719 81.3574 87.25ZM71.8066 88.6562H71.7188V88.7441H71.8066V88.6562ZM71.9238 88.9199L71.8359 89.0078V89.0371C71.8555 89.1152 71.9629 89.1543 72.1582 89.1543H72.3047L72.4805 89.0957V89.0371C72.4609 88.959 72.3926 88.9199 72.2754 88.9199H71.9238ZM74.1504 89.0371H73.8574V89.0957L73.916 89.1836H74.0332L74.209 89.1543V89.0957L74.1504 89.0371ZM80.4199 89.0371L80.3027 89.1836V89.2129C80.3223 89.291 80.3906 89.3301 80.5078 89.3301C80.7031 89.3105 80.8008 89.2617 80.8008 89.1836V89.1543L80.7715 89.0371H80.4199ZM75.3516 89.1543H74.6777V89.2129L75.3516 89.3008H77.0801C77.0801 89.2031 76.5039 89.1543 75.3516 89.1543ZM71.0156 89.2715L70.6934 89.3008V89.3594C70.7324 89.457 70.8105 89.5059 70.9277 89.5059H71.2207L71.3086 89.3887V89.3594C71.3086 89.3008 71.2402 89.2715 71.1035 89.2715H71.0156ZM78.4863 89.3008H78.1934V89.3301C78.1934 89.4277 78.6621 89.4863 79.5996 89.5059V89.4473C79.248 89.3496 78.877 89.3008 78.4863 89.3008ZM70.0781 89.7988H69.9609V90.0332L70.0488 90.0918H70.0781V89.7988ZM81.416 89.8281H81.123V89.9453L81.4453 90.0332H81.5332L81.5918 89.9453V89.8867L81.416 89.8281ZM78.75 90.1211L79.043 90.209H79.3066C79.4434 90.209 79.5215 90.1699 79.541 90.0918H79.4824L79.1602 90.0332C78.8867 90.0723 78.75 90.1016 78.75 90.1211ZM76.4941 90.0918H76.3184V90.1211L76.377 90.209H76.8164V90.1211L76.4941 90.0918ZM74.1797 90.1211L74.0625 90.2383V90.3262H74.209L74.2676 90.2383V90.209L74.209 90.1211H74.1797ZM85.7227 71.0781L87.9785 70.7266H88.0664C88.418 70.7266 89.1504 70.8438 90.2637 71.0781C91.7285 71.0781 93.6621 71.4785 96.0645 72.2793C97.0996 73.0801 97.8906 74.0371 98.4375 75.1504C98.6328 75.7559 98.7305 76.3613 98.7305 76.9668V77.0254C98.7305 77.9043 98.3691 78.8809 97.6465 79.9551C97.2363 80.4824 96.6113 80.9707 95.7715 81.4199C95.5566 81.6348 95.0879 81.9473 94.3652 82.3574C94.0527 82.6113 93.8965 82.7871 93.8965 82.8848C95.5762 85.3262 96.6992 86.9082 97.2656 87.6309C97.8125 88.5684 98.3203 89.0371 98.7891 89.0371C100.273 89.1152 101.016 89.3301 101.016 89.6816L101.25 91.0586C101.211 91.1562 101.133 91.2051 101.016 91.2051H100.781L99.1699 91.5859C99.0137 91.3711 98.3984 91.2637 97.3242 91.2637C96.2695 91.2637 95.7422 91.2051 95.7422 91.0879C95.7227 90.7949 95.6348 90.3945 95.4785 89.8867L95.4492 89.6816V89.5645C95.4492 89.3887 95.1758 88.9395 94.6289 88.2168C94.5312 87.7871 94.4238 87.5332 94.3066 87.4551C93.8574 86.8301 93.1934 85.5703 92.3145 83.6758C92.0996 83.4609 91.9238 83.3535 91.7871 83.3535L89.9707 83.7637C89.1309 83.7637 88.7109 84.0176 88.7109 84.5254V85.0234C88.7109 87.5039 88.8965 88.7441 89.2676 88.7441L89.6484 88.7734H89.9707L90.6738 88.627C90.791 88.8809 90.8496 89.3008 90.8496 89.8867L90.7324 90.1797L90.7617 90.707C90.7617 90.8828 90.0781 91.0684 88.7109 91.2637L88.623 91.2051L86.3379 91.1465H84.6973C84.502 91.1465 84.4043 90.9023 84.4043 90.4141V89.916C84.4043 89.1738 84.5801 88.8027 84.9316 88.8027L86.25 88.5098L86.3086 88.0703C86.1719 83.8125 86.0254 81.0195 85.8691 79.6914C85.8496 75.4141 85.791 73.2754 85.6934 73.2754L85.5762 73.2168L83.584 73.5977L83.4668 73.5684L83.5254 73.3047H83.1738V73.2168H83.1152L83.1738 72.8652V72.6895C83.1738 72.5723 83.0957 72.377 82.9395 72.1035C83.2129 72.0645 83.3496 71.9863 83.3496 71.8691L83.1738 71.6348C83.1738 71.498 84.0234 71.3125 85.7227 71.0781ZM88.2422 71.2832L88.1543 71.3711L88.2422 71.459H88.7402V71.3711L88.3594 71.2832H88.2422ZM88.8574 72.0156C88.5449 72.0352 88.3887 72.084 88.3887 72.1621C88.3887 72.2402 88.4668 72.2793 88.623 72.2793H88.6816C89.209 72.2598 89.4922 72.2012 89.5312 72.1035L89.4434 72.0156H88.8574ZM90.8203 72.3965L90.9375 72.4551H91.2305C91.4062 72.4551 91.5137 72.4062 91.5527 72.3086C91.5527 72.2305 91.4355 72.1914 91.2012 72.1914C91.0059 72.1914 90.8789 72.2598 90.8203 72.3965ZM94.4238 72.3965L94.3652 72.4258V72.4551C94.4434 72.5332 94.5508 72.5723 94.6875 72.5723V72.543C94.6875 72.5039 94.5996 72.4551 94.4238 72.3965ZM83.5254 72.8359V72.9531L83.6133 72.9824C83.75 72.9824 83.8672 72.9043 83.9648 72.748V72.6016L83.8477 72.4844H83.6719C83.5938 72.4844 83.5449 72.6016 83.5254 72.8359ZM95.3613 72.8066V72.8359C95.7324 73.0898 96.1914 73.4219 96.7383 73.832H96.8262V73.6855C96.8262 73.3926 96.3379 73.0996 95.3613 72.8066ZM88.4473 73.1582V73.3926L88.6816 75.2676C88.5645 77.2988 88.4668 78.3926 88.3887 78.5488L88.2422 78.7539V79.1055L88.4473 80.5996C88.4473 81.3027 88.5449 81.6543 88.7402 81.6543H88.7988C90.2832 81.459 91.0254 81.2832 91.0254 81.127C92.0215 80.7559 92.7246 80.4531 93.1348 80.2188C93.9941 80.2188 95.0293 79.6133 96.2402 78.4023C96.5723 77.7383 96.7383 77.123 96.7383 76.5566V76.2344C96.7383 76.0391 96.4648 75.5215 95.918 74.6816C94.9219 73.5488 93.9746 72.9824 93.0762 72.9824L92.0801 72.9238C90.5176 73.0801 89.3066 73.1582 88.4473 73.1582ZM86.4258 73.2168L86.3379 73.3047V73.9492L86.4844 75.5605H86.5137L86.6895 73.2754L86.6309 73.2168H86.4258ZM95.8301 73.7734L95.7715 73.8613L95.918 74.0078H96.0059V73.9492L95.8887 73.7734H95.8301ZM88.0957 74.7988L88.0664 74.916V75.0332C88.0859 75.1699 88.1152 75.2383 88.1543 75.2383L88.2422 75.1504V74.916L88.1543 74.7988H88.0957ZM87.2461 75.7656L87.041 77.7285L87.1289 77.8164H87.2461L87.334 77.6992V76.1465C87.334 75.8926 87.3047 75.7656 87.2461 75.7656ZM97.5586 76.3809L97.4707 76.4395V76.6445L97.5586 76.7031H97.5879L97.6758 76.6152V76.498L97.5879 76.3809H97.5586ZM86.5137 77.1426H86.4258V77.2305L86.5137 77.2891H86.5723V77.2305L86.5137 77.1426ZM97.7637 78.0215H97.6758V78.168L97.4707 78.6074V78.7246L97.6465 78.9297C97.7832 78.9297 97.8613 78.7246 97.8809 78.3145C97.8613 78.1191 97.8223 78.0215 97.7637 78.0215ZM97.0605 79.4863C97.0801 79.584 97.1484 79.6719 97.2656 79.75H97.3242C97.5391 79.5742 97.6465 79.3984 97.6465 79.2227L97.5879 79.1934C97.3145 79.1934 97.1387 79.291 97.0605 79.4863ZM96.2695 79.7793V79.8672H96.3867C96.543 79.8086 96.6211 79.7305 96.6211 79.6328H96.5332C96.3965 79.6328 96.3086 79.6816 96.2695 79.7793ZM94.4238 80.3945V80.4824H94.6875C94.7852 80.3652 95 80.2285 95.332 80.0723L95.3613 80.043V79.9551C95.0879 79.9551 94.7754 80.1016 94.4238 80.3945ZM87.1582 80.0723L87.0703 80.1895V80.2188L87.1582 80.3066L87.2461 80.2188V80.1895L87.1582 80.0723ZM93.0762 81.1562V81.2441C93.623 81.127 93.9844 80.9414 94.1602 80.6875V80.6582H94.1016C93.5352 80.834 93.1934 81 93.0762 81.1562ZM95.4785 80.6582L95.3906 80.7168V80.7754H95.5371V80.6582H95.4785ZM94.9219 81.127L94.9512 81.1562H94.9805L95.1855 81.0391V80.9512H95.1562C95.0195 80.9902 94.9414 81.0488 94.9219 81.127ZM91.7578 81.6543V81.6836H91.9629C92.2363 81.6445 92.373 81.6055 92.373 81.5664L92.3145 81.5078H92.2559C91.9238 81.5469 91.7578 81.5957 91.7578 81.6543ZM90.6738 81.8887V81.918H90.7617C91.0742 81.918 91.2305 81.8691 91.2305 81.7715V81.7129H91.1426C91.0449 81.7129 90.8887 81.7715 90.6738 81.8887ZM92.6074 82.1523L92.666 82.1816H92.6953C93.1836 82.0645 93.4277 81.957 93.4277 81.8594L93.3984 81.8008H93.3691C92.959 81.8789 92.7051 81.9961 92.6074 82.1523ZM93.2227 83.9102V83.9395C93.2227 84.0957 93.3008 84.2324 93.457 84.3496H93.5742V84.291C93.4375 84.0371 93.3203 83.9102 93.2227 83.9102ZM87.2461 87.6309L87.1289 87.748V88.041H87.2461L87.3047 87.748L87.2754 87.6309H87.2461ZM87.8906 89.3301V89.3594L88.0078 89.4766H88.0664C88.1445 89.4766 88.2031 89.3398 88.2422 89.0664V88.9492L88.1836 88.7734H88.0957C88.0176 88.7734 87.9492 88.959 87.8906 89.3301ZM87.334 88.832H87.2754L87.2168 89.3301V89.3594H87.334L87.4512 89.2715V89.1543C87.4512 88.959 87.4121 88.8516 87.334 88.832ZM90.2051 89.5352L90.1758 89.5645V89.6816H90.2051L90.293 89.5645V89.5352H90.2051ZM97.0605 89.6816L96.9434 89.8281L97.0605 89.9746H97.0898L97.207 89.8281V89.6816H97.0605ZM99.9023 89.8281V89.9746L100.078 90.0039H100.225L100.312 89.916V89.8281L100.225 89.7402H100.107C99.9707 89.7598 99.9023 89.7891 99.9023 89.8281ZM90.0293 90.3262L90.0879 90.3555H90.2051L90.3223 90.2676V90.209L90.2637 90.1211C90.1074 90.1211 90.0293 90.1895 90.0293 90.3262ZM97.6758 90.0625H97.3535V90.0918L97.4707 90.209H97.9688V90.1797C97.9492 90.1016 97.8516 90.0625 97.6758 90.0625ZM99.9609 90.6191L100.049 90.7656H100.43C100.605 90.7656 100.713 90.7168 100.752 90.6191C100.752 90.541 100.674 90.502 100.518 90.502H100.195C100.039 90.541 99.9609 90.5801 99.9609 90.6191ZM96.0645 90.6191L96.0059 90.6777C96.0059 90.7559 96.0547 90.7949 96.1523 90.7949L96.2988 90.7363L96.2695 90.6191H96.0645ZM109.307 70.8145L111.152 70.6387C112.559 70.8926 113.418 71.1074 113.73 71.2832C115.137 72.1621 115.977 72.9727 116.25 73.7148L117.275 75.2676C117.529 76.3613 117.783 77.8945 118.037 79.8672C117.881 82.3281 117.646 83.7148 117.334 84.0273C117.119 84.8477 116.807 85.7266 116.396 86.6641C115.459 88.5977 114.805 89.75 114.434 90.1211C113.652 90.8047 112.959 91.1465 112.354 91.1465C112.08 91.2051 111.943 91.293 111.943 91.4102L110.654 91.9082L110.479 91.8789C109.639 91.9961 108.984 92.0547 108.516 92.0547H108.135C107.939 92.0547 107.197 91.8105 105.908 91.3223C105.576 91.2051 105.156 90.8633 104.648 90.2969C104.238 90.0039 104.033 89.7207 104.033 89.4473C103.486 88.6855 102.959 87.4355 102.451 85.6973C102.236 85.1113 102.129 84.7695 102.129 84.6719L102.1 84.2031C102.1 81 102.568 78.6465 103.506 77.1426C103.818 76.7129 104.092 75.9609 104.326 74.8867L105.381 73.5391C105.381 73.0312 106.152 72.2988 107.695 71.3418C107.695 71.2441 108.232 71.0684 109.307 70.8145ZM113.262 71.3711H113.145V71.5469C113.73 71.8984 114.082 72.0742 114.199 72.0742V72.0156C113.77 71.5859 113.457 71.3711 113.262 71.3711ZM112.148 71.6348L112.061 71.7227V71.752C112.725 72.2207 113.496 72.5723 114.375 72.8066V72.748C114.238 72.5723 113.984 72.416 113.613 72.2793C113.613 72.1816 113.32 72.0352 112.734 71.8398C112.617 71.7031 112.461 71.6348 112.266 71.6348H112.148ZM108.545 72.4551V72.5137C108.623 72.5137 109.111 72.3477 110.01 72.0156L110.361 71.8984V71.752C109.873 71.752 109.268 71.9863 108.545 72.4551ZM104.297 81.7715V84.2324C104.297 85.9316 104.736 87.0254 105.615 87.5137C106.494 88.3926 107.051 88.832 107.285 88.832C107.871 88.832 108.35 89.0176 108.721 89.3887L108.984 89.4473L109.307 89.3887L109.57 89.6523H109.6C109.717 89.6523 109.863 89.5449 110.039 89.3301C110.938 89.1934 111.553 88.9883 111.885 88.7148C113.252 87.3477 113.936 86.5859 113.936 86.4297C114.756 84.4766 115.166 83.2461 115.166 82.7383C115.635 80.9414 115.977 80.043 116.191 80.043H116.25V79.8672C116.25 79.6328 116.123 79.2617 115.869 78.7539C115.732 77.1914 115.547 76.2344 115.312 75.8828C114.902 74.7695 113.848 73.7832 112.148 72.9238C111.562 72.6504 111.211 72.5137 111.094 72.5137H110.889C110.01 72.9043 109.531 73.0996 109.453 73.0996C109.395 73.0996 109.365 73.1777 109.365 73.334C108.271 74.0762 107.617 74.5645 107.402 74.7988L105.967 76.6445C105.615 77.0938 105.312 77.6504 105.059 78.3145C104.551 79.4863 104.297 80.6387 104.297 81.7715ZM105.352 75.0332V75.0625H105.41C106.816 73.832 107.52 73.1484 107.52 73.0117H107.49C107.061 73.0117 106.592 73.3828 106.084 74.125C105.986 74.125 105.83 74.2324 105.615 74.4473C105.439 74.4473 105.352 74.6426 105.352 75.0332ZM114.727 73.0996L114.609 73.2168H114.844L114.727 73.0996ZM107.812 73.6855V73.7148H107.9C108.447 73.5781 108.721 73.4121 108.721 73.2168L108.662 73.1582H108.574C108.066 73.2754 107.812 73.4512 107.812 73.6855ZM114.082 73.4805C114.082 73.7148 114.355 73.9492 114.902 74.1836H115.02C115.078 74.1836 115.107 74.1348 115.107 74.0371C115.107 73.8809 114.766 73.6953 114.082 73.4805ZM115.898 74.3301L115.811 74.4473V74.5645C115.811 74.7207 116.104 75.3262 116.689 76.3809L116.396 75.1504C116.396 74.6035 116.25 74.3301 115.957 74.3301H115.898ZM104.883 75.1797L104.824 75.2676V75.3262H104.971V75.1797H104.883ZM104.766 75.5312H104.678V75.6191L104.766 75.5605V75.5312ZM105.41 76.1465L105.176 76.3809V76.498H105.293C105.41 76.498 105.469 76.3906 105.469 76.1758V76.1465H105.41ZM116.953 77.1719L116.777 77.0254L116.748 77.084V77.1133L116.836 77.4355H116.953V77.1719ZM104.443 77.9629V78.1387L104.561 78.2266C104.561 78.1289 104.688 77.8555 104.941 77.4062L104.971 77.1719H104.883C104.688 77.3477 104.541 77.6113 104.443 77.9629ZM116.25 80.6875H116.104V80.8047H116.162L116.25 80.7168V80.6875ZM116.836 80.9805H116.777C116.699 81.2734 116.66 81.6055 116.66 81.9766V82.0059H116.689C116.807 81.9863 116.865 81.8887 116.865 81.7129V81.1562L116.836 80.9805ZM117.305 82.7969V82.9141H117.422C117.539 82.5039 117.598 82.1914 117.598 81.9766V81.8887H117.51C117.393 81.8887 117.324 82.1914 117.305 82.7969ZM115.664 82.7969V82.9727H115.811L115.898 82.709L115.84 82.416H115.811C115.713 82.416 115.664 82.543 115.664 82.7969ZM114.932 85.6973H114.99C115.127 85.6973 115.254 85.3945 115.371 84.7891C115.566 84.457 115.664 84.0176 115.664 83.4707V83.3828L115.635 83.2949C115.459 83.2949 115.254 83.9785 115.02 85.3457L114.99 85.4043L114.932 85.6973ZM103.389 84.2324L103.301 84.291V84.3203L103.389 84.4082H103.418L103.506 84.3203V84.291L103.418 84.2324H103.389ZM102.539 84.6719L102.451 84.7891V85.0234L102.51 85.082H102.568L102.627 84.9062V84.7598L102.539 84.6719ZM114.316 86.4004L114.375 86.6348C113.809 87.377 113.525 87.7871 113.525 87.8652H113.73L113.76 87.8066H113.789L113.818 87.8652V87.8945L112.471 89.0078L112.441 89.0957H112.471L112.5 89.1543H112.559C112.949 89.0176 113.408 88.6855 113.936 88.1582C114.424 87.5332 114.707 86.9766 114.785 86.4883V86.4004V86.1953C114.785 86.0586 114.736 85.9707 114.639 85.9316H114.58C114.482 85.9316 114.395 86.0879 114.316 86.4004ZM103.594 86.6055H103.564V86.8984C103.564 87.1328 103.691 87.3379 103.945 87.5137H104.033V87.4551C104.033 87.1816 103.887 86.8984 103.594 86.6055ZM113.613 90.1211V90.2383H113.643C114.404 89.7305 114.785 89.3496 114.785 89.0957H114.668C114.219 89.4473 113.867 89.7891 113.613 90.1211ZM110.244 89.5059V89.5645H110.566L110.654 89.4473V89.3887H110.566C110.371 89.3887 110.264 89.4277 110.244 89.5059ZM107.402 89.4766C107.402 89.6133 107.539 89.7305 107.812 89.8281V89.7988C107.812 89.6426 107.676 89.5352 107.402 89.4766ZM105.469 89.916H105.41V90.0332L105.498 90.0918H105.586V90.0332L105.469 89.916ZM110.596 90.7363V90.8535H110.771C111.396 90.6973 111.709 90.4922 111.709 90.2383H111.68C111.523 90.2383 111.162 90.4043 110.596 90.7363ZM109.453 90.3262L109.014 90.3848V90.5312H109.453H110.098V90.4727C110.098 90.3945 109.971 90.3457 109.717 90.3262H109.453ZM108.369 90.3555L108.281 90.4141L108.574 90.5312V90.4727C108.555 90.3945 108.486 90.3555 108.369 90.3555ZM112.5 90.6484L112.441 90.7363V90.8535H112.559L112.676 90.7363L112.559 90.6484H112.5ZM105.674 90.9121V90.9707C105.674 91.0684 106.006 91.2148 106.67 91.4102C107.49 91.6641 108.047 91.791 108.34 91.791C108.809 91.791 109.521 91.6836 110.479 91.4688V91.4102H109.922L107.93 91.498L106.67 91.0586C106.279 90.9609 105.947 90.9121 105.674 90.9121ZM120.088 72.8066L121.729 72.9824H122.402C123.164 72.9824 123.545 73.0605 123.545 73.2168L123.311 73.4805C123.311 73.5586 123.486 73.6465 123.838 73.7441V73.7734C123.662 73.9102 123.496 74.2031 123.34 74.6523L121.611 74.916L121.377 74.9746V75.0332L121.523 77.1719C121.523 77.6211 121.426 78.5586 121.23 79.9844V80.5117C121.23 80.9219 121.279 81.7324 121.377 82.9434L121.348 82.9727L121.113 82.3574H121.025L120.996 82.7969V84.4668C120.996 85.1504 121.035 85.4922 121.113 85.4922H121.172L121.348 83.3828L121.377 83.3535H121.436L121.523 84.0566L121.348 86.3125C121.523 86.6836 121.631 86.9863 121.67 87.2207C121.943 87.2207 122.363 87.7383 122.93 88.7734C123.301 89.125 123.965 89.3008 124.922 89.3008L125.654 89.4766H125.859C126.523 89.4766 127.002 89.1348 127.295 88.4512C127.686 87.8262 128.105 87.1035 128.555 86.2832C128.828 85.9707 128.965 85.541 128.965 84.9941V84.5254L128.848 81.6543L128.936 81.3027C128.955 81.3027 128.984 81.3516 129.023 81.4492H129.111C129.229 81.4492 129.307 81.1562 129.346 80.5703C129.092 80.5703 128.965 80.4824 128.965 80.3066L129.141 78.1094C128.965 76.1758 128.691 75.209 128.32 75.209C127.363 75.0723 126.885 74.8867 126.885 74.6523C126.67 74.3203 126.562 74.0469 126.562 73.832C126.934 73.3047 127.51 73.041 128.291 73.041C128.291 73.002 128.984 72.9629 130.371 72.9238C131.328 72.9238 131.807 73.0215 131.807 73.2168L131.865 73.3926V73.832C131.865 74.4375 131.553 74.877 130.928 75.1504L130.84 75.2676V75.3262C131.016 78.0215 131.162 79.6133 131.279 80.1016C131.006 80.9219 130.869 82.4355 130.869 84.6426C130.869 84.9355 130.479 86.3125 129.697 88.7734C129.404 89.3008 129.248 89.5645 129.229 89.5645C129.092 89.584 129.004 89.6621 128.965 89.7988V89.8574H129.199V89.8867C129.18 89.9258 128.936 90.1211 128.467 90.4727C128.154 90.7852 127.666 90.9414 127.002 90.9414L126.24 90.8828L124.629 91.1758C122.617 91.1758 121.221 90.6973 120.439 89.7402C120.127 89.6035 119.971 89.3984 119.971 89.125L120 88.832C119.707 88.4609 119.365 87.4746 118.975 85.873L118.799 84.7598V84.5547L118.887 84.0273L118.711 83.9688V83.6758L118.564 83.3242C118.604 82.9727 118.74 82.5918 118.975 82.1816V80.8633L119.326 77.2598V75.1504C119.326 74.9355 119.033 74.7793 118.447 74.6816C118.291 74.2715 118.213 73.8027 118.213 73.2754C118.213 72.9629 118.838 72.8066 120.088 72.8066ZM130.928 73.7441L130.84 73.832C130.996 73.9883 131.172 74.0664 131.367 74.0664H131.455C131.455 73.8516 131.328 73.7441 131.074 73.7441H130.928ZM128.467 74.0078H127.939V74.0664L128.262 74.1836H128.467L128.555 74.0664L128.467 74.0078ZM130.195 74.0078L130.078 74.0664L130.195 74.1836H130.312L130.4 74.0664L130.312 74.0078H130.195ZM119.15 74.2129H119.004V74.2715C119.004 74.3496 119.082 74.3887 119.238 74.3887H119.297L119.355 74.3008C119.336 74.2422 119.268 74.2129 119.15 74.2129ZM120.059 74.916C120 75.0332 119.971 75.1504 119.971 75.2676L120.059 75.3848H120.146C120.283 75.3066 120.352 75.2188 120.352 75.1211C120.332 74.9844 120.234 74.916 120.059 74.916ZM120.879 75.209L120.791 75.0918L120.557 75.5898V75.6484C120.615 75.7852 120.703 75.8535 120.82 75.8535C120.859 75.7363 120.879 75.5996 120.879 75.4434V75.209ZM120.439 77.3184V77.3477H120.498L120.586 77.0254H120.557C120.479 77.0254 120.439 77.123 120.439 77.3184ZM130.195 77.3184H130.078L130.049 77.4648V77.9922L130.078 78.0801H130.137C130.215 78.0605 130.254 77.9922 130.254 77.875V77.6406L130.195 77.3184ZM119.854 77.5234H119.766V77.6992V77.9922V78.1973H119.854C119.932 78.1973 119.971 78.0703 119.971 77.8164C119.951 77.6211 119.912 77.5234 119.854 77.5234ZM120.703 78.6074V79.1934H120.82C120.879 78.959 120.908 78.6855 120.908 78.373V77.9922H120.82C120.742 77.9922 120.703 78.1973 120.703 78.6074ZM130.312 79.0762H130.137L130.078 79.6328V79.9844H130.195C130.273 79.7305 130.312 79.4961 130.312 79.2812V79.0762ZM120.088 80.7754L120.029 80.7168V80.7754H120.088ZM120.059 81.3906H120.029L120 81.5957V82.6504H120.088L120.146 81.918V81.4492L120.059 81.3906ZM129.785 81.4492H129.756V81.5664C129.756 81.625 129.854 81.6641 130.049 81.6836L130.078 81.6543V81.625C129.961 81.5078 129.863 81.4492 129.785 81.4492ZM130.078 82.5332H129.99L129.961 82.709V82.7676H130.078V82.5918V82.5332ZM129.756 83.9688H129.785C129.902 83.9688 129.971 83.6953 129.99 83.1484H129.961C129.844 83.168 129.775 83.4414 129.756 83.9688ZM129.639 84.4668V84.6426H129.668C129.746 84.623 129.785 84.5254 129.785 84.3496V84.1738H129.756C129.678 84.1934 129.639 84.291 129.639 84.4668ZM120.264 86.7812H120.205V86.9277C120.205 87.1426 120.264 87.3867 120.381 87.6602C120.342 87.7773 120.322 87.9043 120.322 88.041V88.2168C120.361 88.4316 120.469 88.5391 120.645 88.5391L120.732 88.5098V88.4512C120.674 88.0605 120.625 87.7969 120.586 87.6602L120.615 87.4258V87.3672C120.615 87.25 120.498 87.0547 120.264 86.7812ZM121.67 87.4551H121.611V87.4844C121.611 87.5625 121.807 87.9141 122.197 88.5391V88.5977H122.402L122.549 88.4512V88.4219C122.549 88.3242 122.354 88.1094 121.963 87.7773V87.748L122.08 87.6602C122.002 87.5234 121.865 87.4551 121.67 87.4551ZM128.115 89.0664L128.174 89.125H128.203C128.613 88.9688 128.818 88.7734 128.818 88.5391L128.73 88.5098C128.496 88.5098 128.291 88.6953 128.115 89.0664ZM120.82 89.1836L120.732 89.2715C120.811 89.4668 120.908 89.6035 121.025 89.6816H121.084V89.5645C121.084 89.4277 120.996 89.3008 120.82 89.1836ZM122.695 89.2422L122.607 89.3008V89.3301L122.695 89.418H122.842V89.3301L122.695 89.2422ZM127.266 89.5352H127.354C127.471 89.5352 127.549 89.4766 127.588 89.3594V89.2715H127.559C127.363 89.291 127.266 89.3789 127.266 89.5352ZM124.863 89.623L124.57 89.7109V89.8281H124.6C124.795 89.8281 124.902 89.7891 124.922 89.7109V89.623H124.863ZM128.027 90.2676V90.3262H128.086C128.223 90.3262 128.301 90.2676 128.32 90.1504V90.0918H128.291C128.135 90.1504 128.047 90.209 128.027 90.2676ZM125.332 90.0918L125.068 90.1504V90.3262H125.244C125.342 90.3262 125.41 90.2773 125.449 90.1797V90.0918H125.332ZM127.09 90.6484V90.707H127.354C127.705 90.6484 127.881 90.5508 127.881 90.4141H127.705C127.393 90.4141 127.188 90.4922 127.09 90.6484ZM139.043 70.8438L140.977 71.2246C141.309 71.2246 141.875 71.5078 142.676 72.0742H142.793C142.812 71.3125 142.881 70.9316 142.998 70.9316C143.584 71.1465 143.936 71.2539 144.053 71.2539H144.639L145.107 71.2246L145.166 71.3125L145.137 71.4883V75.2383C145.137 75.4531 145.068 75.6289 144.932 75.7656C145.088 75.9219 145.166 76.0684 145.166 76.2051C145.166 76.3418 145.107 76.5078 144.99 76.7031L145.078 77.2012C145.078 77.4355 145.02 77.5527 144.902 77.5527L144.141 77.4355H144.111L143.701 77.5527H143.643C143.564 77.5527 143.438 77.1328 143.262 76.293C143.262 76.0195 143.145 75.7754 142.91 75.5605C142.656 75.1895 142.529 74.9355 142.529 74.7988L142.705 74.7402V74.7109C142.412 74.4766 142.236 74.2129 142.178 73.9199C141.377 73.1191 140.693 72.7188 140.127 72.7188H139.922C139.707 72.7188 138.73 72.9238 136.992 73.334C136.836 73.4512 136.582 73.8223 136.23 74.4473C135.859 74.9355 135.674 75.4043 135.674 75.8535C135.791 77.1035 135.947 77.7285 136.143 77.7285C136.396 78.3926 136.699 78.793 137.051 78.9297C137.109 79.0273 137.344 79.125 137.754 79.2227C138.027 79.4766 138.604 79.7891 139.482 80.1602C139.482 80.2383 139.58 80.2871 139.775 80.3066L140.127 80.1895C140.283 80.2285 140.361 80.2676 140.361 80.3066V80.3359L140.244 80.4531V80.541C140.518 80.873 140.85 81.0391 141.24 81.0391V81.0098L140.684 80.541V80.5117C140.859 80.5117 141.484 80.8535 142.559 81.5371C144.18 83.041 144.99 83.998 144.99 84.4082C145.264 85.5996 145.4 86.3418 145.4 86.6348C145.225 88.1191 145.059 88.8613 144.902 88.8613L144.199 90.0918C142.852 90.9121 142.061 91.3223 141.826 91.3223C139.58 90.834 138.086 90.4434 137.344 90.1504C135.82 88.7246 135.059 87.8848 135.059 87.6309L134.941 87.543L134.883 87.5723V87.7188V89.3594C134.883 89.4961 134.531 89.5645 133.828 89.5645H133.301L132.861 89.7109C132.725 89.7109 132.549 89.6035 132.334 89.3887V89.3594L132.48 89.125C132.617 85.8438 132.783 84.2031 132.979 84.2031H133.037L133.564 84.291C133.662 84.291 133.76 84.2617 133.857 84.2031L134.238 84.291L134.443 84.2324H134.561C134.639 84.2715 134.814 84.5547 135.088 85.082C135.83 86.0195 136.494 86.918 137.08 87.7773C137.158 87.7773 137.402 88.041 137.812 88.5684L139.629 89.3594H140.156V89.4766H140.215L140.361 89.3887H140.42C140.576 89.5059 140.723 89.5645 140.859 89.5645H141.035C141.562 89.5449 141.826 89.4766 141.826 89.3594V89.3008H141.24L140.889 89.2715C140.908 89.1934 141.602 89.0469 142.969 88.832C143.281 88.832 143.584 88.2852 143.877 87.1914C143.877 86.8398 143.965 86.5859 144.141 86.4297V86.3125C143.809 85.2773 143.438 84.6035 143.027 84.291C142.793 83.8809 141.904 83.4023 140.361 82.8555C139.346 82.4648 138.525 82.0059 137.9 81.4785C136.982 81.2051 136.455 80.9023 136.318 80.5703C136.201 80.3164 135.752 79.8965 134.971 79.3105C134.619 78.2363 134.238 77.4062 133.828 76.8203C133.613 75.9609 133.506 75.0527 133.506 74.0957C133.662 73.4512 134.365 72.5625 135.615 71.4297C136.338 71.0391 137.48 70.8438 139.043 70.8438ZM135.615 71.8691H135.967C136.123 71.8691 136.846 71.7031 138.135 71.3711C138.604 71.293 138.838 71.2148 138.838 71.1367L138.721 71.1074C136.65 71.2832 135.615 71.5371 135.615 71.8691ZM143.35 71.4883L143.32 71.6055V71.6934C143.32 71.8105 143.398 71.8691 143.555 71.8691H144.053V71.8398C143.857 71.6055 143.623 71.4883 143.35 71.4883ZM136.494 72.9531H136.553C136.748 72.9531 137.207 72.7773 137.93 72.4258L138.721 72.1328V72.1621L138.633 72.3379H138.867L139.043 72.2793V72.1621L138.984 72.0742V71.8984H138.926C138.145 72.1328 137.5 72.377 136.992 72.6309C136.66 72.6895 136.494 72.7969 136.494 72.9531ZM141.445 72.1328H140.947C140.947 72.1719 141.24 72.2695 141.826 72.4258H141.973L142.031 72.3965V72.3379C141.973 72.2012 141.777 72.1328 141.445 72.1328ZM143.467 72.1621L143.408 72.2793V72.3379L143.438 72.5137H143.525L143.613 72.4258V72.2793L143.525 72.1621H143.467ZM135.762 72.5723V72.6016C135.762 72.6602 135.801 72.6895 135.879 72.6895C135.977 72.6504 136.045 72.582 136.084 72.4844V72.4258C135.908 72.4258 135.801 72.4746 135.762 72.5723ZM142.412 72.7188L142.559 72.8652H142.705L142.793 72.7773V72.6895C142.793 72.6309 142.715 72.5723 142.559 72.5137C142.461 72.5527 142.412 72.6211 142.412 72.7188ZM143.906 73.1289L143.994 73.1875V73.2168L143.877 73.3633V73.4512C143.877 73.4902 143.955 73.5391 144.111 73.5977C144.15 73.7539 144.209 73.8418 144.287 73.8613H144.375V73.7441L144.346 73.6562V73.5391H144.434L144.58 73.6562H144.639L144.668 73.4805V73.4219C144.531 72.875 144.434 72.6016 144.375 72.6016H144.199C144.004 72.6797 143.906 72.8555 143.906 73.1289ZM135.586 73.8613L135.762 74.0371H135.82C136.055 73.998 136.27 73.8711 136.465 73.6562L136.377 73.5977H136.055C135.84 73.5977 135.684 73.6855 135.586 73.8613ZM134.297 73.627L134.209 73.7148V73.7441H134.355V73.627H134.297ZM135.088 75.0039V75.0332H135.146C135.498 74.7012 135.674 74.4082 135.674 74.1543L135.586 74.0664C135.352 74.0664 135.186 74.3789 135.088 75.0039ZM144.639 74.1543H144.492V74.2129C144.551 74.3301 144.609 74.3887 144.668 74.3887V74.2715L144.639 74.1543ZM144.346 74.3594L144.258 74.4473H144.346V74.3594ZM143.877 74.5059L143.76 74.5938V74.623L143.877 74.7402H143.994L144.111 74.623V74.5938L143.994 74.5059H143.877ZM144.551 74.7988L144.434 74.8867V75.0918L144.463 75.2969H144.551L144.639 74.7988H144.551ZM143.936 75.2969H143.877V75.3555L143.936 75.4434H144.053V75.3555L143.936 75.2969ZM143.848 76.0879V76.5566L143.906 76.6152H143.936C144.092 76.6152 144.18 76.5469 144.199 76.4102C144.102 76.1758 144.053 75.9805 144.053 75.8242H143.994C143.896 75.8633 143.848 75.9512 143.848 76.0879ZM143.994 77.0254L143.906 77.1133L144.053 77.2012H144.141L144.17 77.1133L144.053 77.0254H143.994ZM134.971 78.2852V78.4902L135.088 78.6074H135.322V78.4902C135.186 78.3535 135.068 78.2852 134.971 78.2852ZM135.527 79.0762H135.498V79.2227C135.908 79.5156 136.182 79.6621 136.318 79.6621H136.436V79.5449C136.162 79.3496 135.859 79.1934 135.527 79.0762ZM139.189 80.0723H138.926C138.945 80.1504 139.023 80.1895 139.16 80.1895H139.277V80.1602L139.189 80.0723ZM139.482 80.5117L139.395 80.5703C139.473 80.6875 139.795 80.873 140.361 81.127V81.0098C140.088 80.7559 139.795 80.5898 139.482 80.5117ZM140.156 82.2695H140.01V82.416C140.264 82.5332 140.576 82.6016 140.947 82.6211C140.947 82.6992 141.016 82.7383 141.152 82.7383H141.387V82.709C141.387 82.5332 140.977 82.3867 140.156 82.2695ZM142.119 83.0605H142.031V83.1484L142.119 83.2363H142.178V83.1484L142.119 83.0605ZM133.301 86.0781H133.184C133.086 86.3711 133.037 86.7422 133.037 87.1914L133.096 87.5723H133.125C133.301 87.5723 133.389 87.4941 133.389 87.3379C133.33 86.8887 133.301 86.4688 133.301 86.0781ZM133.916 86.9277C133.818 87.2598 133.711 87.4746 133.594 87.5723L133.711 87.8945V88.6562V88.832C133.711 88.9688 133.75 89.0371 133.828 89.0371H134.004L134.092 88.9492V88.832C134.092 87.5625 134.033 86.9277 133.916 86.9277ZM135.527 87.6602H135.498V87.7188C135.576 88.0312 135.723 88.1875 135.938 88.1875V88.1289C135.801 87.8164 135.664 87.6602 135.527 87.6602ZM133.125 88.3047L133.184 88.3633H133.213C133.271 88.3633 133.32 88.168 133.359 87.7773L133.301 87.7188C133.223 87.7188 133.164 87.9141 133.125 88.3047ZM136.553 87.9238H136.494V87.9531C136.65 88.2461 136.807 88.3926 136.963 88.3926V88.3047C136.807 88.1289 136.67 88.002 136.553 87.9238ZM144.141 88.4219L143.994 88.5684L144.111 88.6855H144.258L144.375 88.5684V88.5098L144.287 88.4219H144.141ZM138.281 89.0957V89.125C138.32 89.2227 138.389 89.2715 138.486 89.2715C138.447 89.1543 138.379 89.0957 138.281 89.0957ZM136.875 89.1543L136.67 89.125V89.1543C136.865 89.584 137.354 89.916 138.135 90.1504C138.779 90.3848 139.688 90.6289 140.859 90.8828C141.094 91.0391 141.299 91.127 141.475 91.1465H141.738C142.227 91.0098 142.471 90.834 142.471 90.6191L139.834 90.4141C138.291 89.9258 137.305 89.5059 136.875 89.1543ZM142.031 90.0039V90.0625L142.119 90.1211H142.266C142.969 90.1211 143.359 90.0234 143.438 89.8281L143.32 89.7695H143.145C142.93 89.7695 142.559 89.8477 142.031 90.0039ZM141.152 90.7363V90.6191H141.211C141.348 90.6191 141.416 90.6582 141.416 90.7363H141.328H141.152Z" fill="#D0D0D0"/>
<path d="M52.26 101.687L50.86 103.387C51.1 103.827 51.6067 104.047 52.38 104.047C52.9267 104.047 53.4667 103.807 54 103.327C54.5467 102.847 54.82 102.387 54.82 101.947C54.82 101.44 54.4267 101.187 53.64 101.187C53.3333 101.187 52.8733 101.354 52.26 101.687ZM50.64 103.627C50.2933 104.107 50.0533 104.347 49.92 104.347C49.7867 104.347 49.72 104.307 49.72 104.227C49.72 104.134 49.7933 104.007 49.94 103.847C52.0067 101.46 53.3667 99.8138 54.02 98.9071C55.18 97.5604 56.2267 96.5204 57.16 95.7871C58.1067 95.0404 58.9667 94.6671 59.74 94.6671C60.3267 94.6671 60.62 94.8804 60.62 95.3071C60.62 95.5071 60.48 95.6804 60.2 95.8271C59.8533 95.8271 59.68 95.7538 59.68 95.6071C59.68 95.5271 59.7333 95.4404 59.84 95.3471C59.96 95.2404 60.02 95.1538 60.02 95.0871C60.02 95.0204 59.88 94.9871 59.6 94.9871C58.9467 94.9871 58.2 95.3404 57.36 96.0471C56.5333 96.7404 55.5667 97.7338 54.46 99.0271C54.4333 99.0404 53.8467 99.7471 52.7 101.147C53.14 100.894 53.6267 100.767 54.16 100.767C54.9733 100.767 55.38 101.08 55.38 101.707C55.38 102.267 55.04 102.86 54.36 103.487C53.68 104.1 52.96 104.407 52.2 104.407C51.44 104.407 50.92 104.147 50.64 103.627ZM56.6205 104.047C57.1405 104.047 57.7205 103.78 58.3605 103.247C59.0005 102.7 59.3738 102.234 59.4805 101.847C59.4805 101.687 59.3805 101.554 59.1805 101.447C58.9805 101.327 58.7538 101.267 58.5005 101.267C57.8871 101.267 57.3205 101.534 56.8005 102.067C56.2938 102.587 56.0405 103.047 56.0405 103.447C56.0405 103.847 56.2338 104.047 56.6205 104.047ZM58.6805 100.947C59.1471 100.947 59.5338 101.114 59.8405 101.447C59.8538 101.447 59.9605 101.347 60.1605 101.147C60.2538 101 60.3605 100.927 60.4805 100.927C60.6005 100.927 60.6605 100.987 60.6605 101.107L60.5805 101.287C60.5405 101.354 60.2738 101.68 59.7805 102.267C59.3005 102.854 59.0205 103.2 58.9405 103.307C58.8738 103.414 58.8405 103.574 58.8405 103.787C58.8405 103.934 58.9338 104.007 59.1205 104.007C59.5071 104.007 60.0538 103.687 60.7605 103.047C60.8005 102.994 60.8405 102.967 60.8805 102.967C60.9338 102.967 60.9605 103 60.9605 103.067C60.9605 103.227 60.6871 103.48 60.1405 103.827C59.6071 104.174 59.1271 104.347 58.7005 104.347C58.4071 104.347 58.2605 104.194 58.2605 103.887C58.2605 103.78 58.2405 103.727 58.2005 103.727C58.1738 103.727 58.1538 103.734 58.1405 103.747C57.4738 104.187 56.8405 104.407 56.2405 104.407C55.6538 104.407 55.3605 104.14 55.3605 103.607C55.3605 103.047 55.6938 102.467 56.3605 101.867C57.0271 101.254 57.8005 100.947 58.6805 100.947ZM63.7748 102.507C63.8948 102.507 64.0482 102.454 64.2348 102.347C64.3015 102.347 64.3348 102.374 64.3348 102.427C64.3348 102.467 64.3148 102.5 64.2748 102.527C64.2482 102.554 64.1282 102.6 63.9148 102.667C63.7015 102.734 63.5282 102.767 63.3948 102.767C62.9548 102.767 62.7348 102.627 62.7348 102.347C62.7348 102.24 62.7615 102.127 62.8148 102.007C62.8815 101.887 62.9148 101.807 62.9148 101.767C62.9148 101.727 62.9015 101.707 62.8748 101.707C62.6082 101.8 62.2215 102.034 61.7148 102.407L60.2948 104.187C60.1882 104.32 60.0882 104.387 59.9948 104.387C59.8882 104.387 59.8348 104.354 59.8348 104.287C59.8348 104.22 59.8815 104.114 59.9748 103.967L61.2348 102.387C61.3282 102.267 61.5015 102.04 61.7548 101.707C62.0082 101.374 62.1548 101.174 62.1948 101.107C62.2482 101.04 62.3415 101.007 62.4748 101.007C62.6215 101.007 62.6948 101.034 62.6948 101.087C62.6948 101.14 62.6815 101.18 62.6548 101.207L62.3748 101.607C62.3348 101.66 62.2882 101.714 62.2348 101.767C62.3548 101.74 62.8348 101.5 63.6748 101.047C63.7015 101.034 63.7482 101.027 63.8148 101.027C63.8815 101.027 63.9148 101.047 63.9148 101.087C63.9148 101.114 63.9015 101.147 63.8748 101.187C63.8615 101.214 63.7948 101.3 63.6748 101.447C63.4348 101.74 63.3148 101.96 63.3148 102.107C63.3148 102.374 63.4682 102.507 63.7748 102.507ZM65.8342 101.687L64.4342 103.387C64.6742 103.827 65.1809 104.047 65.9542 104.047C66.5009 104.047 67.0409 103.807 67.5742 103.327C68.1209 102.847 68.3942 102.387 68.3942 101.947C68.3942 101.44 68.0009 101.187 67.2142 101.187C66.9076 101.187 66.4476 101.354 65.8342 101.687ZM64.2142 103.627C63.8676 104.107 63.6276 104.347 63.4942 104.347C63.3609 104.347 63.2942 104.307 63.2942 104.227C63.2942 104.134 63.3676 104.007 63.5142 103.847C65.5809 101.46 66.9409 99.8138 67.5942 98.9071C68.7542 97.5604 69.8009 96.5204 70.7342 95.7871C71.6809 95.0404 72.5409 94.6671 73.3142 94.6671C73.9009 94.6671 74.1942 94.8804 74.1942 95.3071C74.1942 95.5071 74.0542 95.6804 73.7742 95.8271C73.4276 95.8271 73.2542 95.7538 73.2542 95.6071C73.2542 95.5271 73.3076 95.4404 73.4142 95.3471C73.5342 95.2404 73.5942 95.1538 73.5942 95.0871C73.5942 95.0204 73.4542 94.9871 73.1742 94.9871C72.5209 94.9871 71.7742 95.3404 70.9342 96.0471C70.1076 96.7404 69.1409 97.7338 68.0342 99.0271C68.0076 99.0404 67.4209 99.7471 66.2742 101.147C66.7142 100.894 67.2009 100.767 67.7342 100.767C68.5476 100.767 68.9542 101.08 68.9542 101.707C68.9542 102.267 68.6142 102.86 67.9342 103.487C67.2542 104.1 66.5342 104.407 65.7742 104.407C65.0142 104.407 64.4942 104.147 64.2142 103.627ZM69.5947 103.247V103.387C71.088 102.814 71.8347 102.24 71.8347 101.667C71.8347 101.374 71.648 101.227 71.2747 101.227C70.9147 101.227 70.5414 101.454 70.1547 101.907C69.7814 102.36 69.5947 102.807 69.5947 103.247ZM72.3347 101.507C72.3347 102.307 71.4414 103 69.6547 103.587C69.7614 103.894 70.0547 104.047 70.5347 104.047C71.348 104.047 72.1214 103.714 72.8547 103.047C72.8947 102.994 72.9347 102.967 72.9747 102.967C73.028 102.967 73.0547 103.014 73.0547 103.107C73.0547 103.187 72.9347 103.327 72.6947 103.527C72.4547 103.727 72.1147 103.92 71.6747 104.107C71.2347 104.294 70.8014 104.387 70.3747 104.387C69.468 104.387 69.0147 104.054 69.0147 103.387C69.0147 102.84 69.288 102.287 69.8347 101.727C70.3947 101.167 70.9947 100.887 71.6347 100.887C72.1014 100.887 72.3347 101.094 72.3347 101.507ZM75.8452 102.507C75.9652 102.507 76.1185 102.454 76.3052 102.347C76.3718 102.347 76.4052 102.374 76.4052 102.427C76.4052 102.467 76.3852 102.5 76.3452 102.527C76.3185 102.554 76.1985 102.6 75.9852 102.667C75.7718 102.734 75.5985 102.767 75.4652 102.767C75.0252 102.767 74.8052 102.627 74.8052 102.347C74.8052 102.24 74.8318 102.127 74.8852 102.007C74.9518 101.887 74.9852 101.807 74.9852 101.767C74.9852 101.727 74.9718 101.707 74.9452 101.707C74.6785 101.8 74.2918 102.034 73.7852 102.407L72.3652 104.187C72.2585 104.32 72.1585 104.387 72.0652 104.387C71.9585 104.387 71.9052 104.354 71.9052 104.287C71.9052 104.22 71.9518 104.114 72.0452 103.967L73.3052 102.387C73.3985 102.267 73.5718 102.04 73.8252 101.707C74.0785 101.374 74.2252 101.174 74.2652 101.107C74.3185 101.04 74.4118 101.007 74.5452 101.007C74.6918 101.007 74.7652 101.034 74.7652 101.087C74.7652 101.14 74.7518 101.18 74.7252 101.207L74.4452 101.607C74.4052 101.66 74.3585 101.714 74.3052 101.767C74.4252 101.74 74.9052 101.5 75.7452 101.047C75.7718 101.034 75.8185 101.027 75.8852 101.027C75.9518 101.027 75.9852 101.047 75.9852 101.087C75.9852 101.114 75.9718 101.147 75.9452 101.187C75.9318 101.214 75.8652 101.3 75.7452 101.447C75.5052 101.74 75.3852 101.96 75.3852 102.107C75.3852 102.374 75.5385 102.507 75.8452 102.507ZM78.7575 103.507C78.7575 103.107 78.9175 102.78 79.2375 102.527C79.5575 102.274 79.9042 102.147 80.2775 102.147C80.6642 102.147 80.8575 102.314 80.8575 102.647C80.8575 102.794 80.8042 102.94 80.6975 103.087C80.6042 103.234 80.4975 103.307 80.3775 103.307C80.2708 103.307 80.2175 103.267 80.2175 103.187C80.2175 103.094 80.2575 103.007 80.3375 102.927C80.4308 102.847 80.4775 102.767 80.4775 102.687C80.4775 102.46 80.3708 102.347 80.1575 102.347C79.9442 102.347 79.7375 102.447 79.5375 102.647C79.3508 102.834 79.2575 103.06 79.2575 103.327C79.2575 103.58 79.3242 103.794 79.4575 103.967C79.5908 104.14 79.7975 104.227 80.0775 104.227C80.3708 104.227 80.6175 104.107 80.8175 103.867C81.0308 103.614 81.1908 103.314 81.2975 102.967C81.4042 102.607 81.5175 102.247 81.6375 101.887C81.7708 101.527 81.9642 101.227 82.2175 100.987C82.4842 100.734 82.7708 100.607 83.0775 100.607C83.3842 100.607 83.6242 100.66 83.7975 100.767C83.9708 100.86 84.0575 100.987 84.0575 101.147C84.0575 101.307 83.9908 101.46 83.8575 101.607C83.7375 101.754 83.6042 101.827 83.4575 101.827C83.3108 101.827 83.2308 101.794 83.2175 101.727C83.2175 101.62 83.2908 101.527 83.4375 101.447C83.5175 101.42 83.5575 101.327 83.5575 101.167C83.5575 100.954 83.4108 100.847 83.1175 100.847C82.8242 100.847 82.5775 101.04 82.3775 101.427C82.1775 101.8 82.0242 102.214 81.9175 102.667C81.8242 103.107 81.6108 103.52 81.2775 103.907C80.9442 104.28 80.4975 104.467 79.9375 104.467C79.5908 104.467 79.3175 104.387 79.1175 104.227C78.9175 104.067 78.8108 103.907 78.7975 103.747L78.7575 103.507ZM91.8944 95.1071C91.8944 95.0138 91.841 94.9671 91.7344 94.9671C91.3077 94.9671 90.001 96.2004 87.8144 98.6671C88.8277 98.1204 89.761 97.4671 90.6144 96.7071C91.4677 95.9338 91.8944 95.4004 91.8944 95.1071ZM82.7744 104.307C82.681 104.307 82.6344 104.254 82.6344 104.147C82.6344 104.027 82.6877 103.927 82.7944 103.847C84.1677 102.18 85.521 100.607 86.8544 99.1271C89.641 96.0738 91.4077 94.5471 92.1544 94.5471C92.2344 94.5471 92.3144 94.5804 92.3944 94.6471C92.4744 94.7138 92.5144 94.7938 92.5144 94.8871C92.5144 95.2738 91.961 95.9338 90.8544 96.8671C89.761 97.7871 88.6077 98.5471 87.3944 99.1471C86.861 99.7471 86.2277 100.474 85.4944 101.327C86.121 100.94 86.6477 100.747 87.0744 100.747C87.2744 100.747 87.4344 100.794 87.5544 100.887C87.6877 100.98 87.781 101.12 87.8344 101.307C87.8344 101.614 87.5744 102.054 87.0544 102.627C86.5344 103.187 86.2744 103.574 86.2744 103.787C86.2744 103.934 86.3677 104.007 86.5544 104.007C86.941 104.007 87.4877 103.687 88.1944 103.047C88.2344 102.994 88.2744 102.967 88.3144 102.967C88.3677 102.967 88.3944 103 88.3944 103.067C88.3944 103.227 88.121 103.48 87.5744 103.827C87.041 104.174 86.561 104.347 86.1344 104.347C85.841 104.347 85.6944 104.2 85.6944 103.907C85.6944 103.614 85.9477 103.187 86.4544 102.627C86.961 102.054 87.2144 101.674 87.2144 101.487C87.2144 101.3 87.0277 101.214 86.6544 101.227C86.2944 101.227 85.7477 101.447 85.0144 101.887C83.8944 103.167 83.2944 103.847 83.2144 103.927C83.1344 104.007 83.0677 104.074 83.0144 104.127C82.9077 104.247 82.8277 104.307 82.7744 104.307ZM90.7167 101.007C90.7167 101.554 90.9367 101.88 91.3767 101.987C91.3901 101.92 91.3967 101.787 91.3967 101.587C91.3967 101.374 91.3434 101.2 91.2367 101.067C91.1301 100.92 91.0167 100.847 90.8967 100.847C90.7767 100.847 90.7167 100.9 90.7167 101.007ZM91.2967 102.287C90.6434 102.22 90.2967 101.86 90.2567 101.207C89.8034 101.22 89.3767 101.474 88.9767 101.967C88.5901 102.447 88.3967 102.907 88.3967 103.347C88.3967 103.84 88.6567 104.087 89.1767 104.087C89.5234 104.087 89.9234 103.914 90.3767 103.567C90.8301 103.207 91.1367 102.78 91.2967 102.287ZM87.7167 103.507C87.7167 102.974 87.9967 102.407 88.5567 101.807C89.1301 101.207 89.7101 100.9 90.2967 100.887C90.4167 100.634 90.6167 100.507 90.8967 100.507C91.1901 100.507 91.4167 100.594 91.5767 100.767C91.7501 100.927 91.8367 101.14 91.8367 101.407C91.8367 101.66 91.8101 101.867 91.7567 102.027C92.1434 102.027 92.5767 101.934 93.0567 101.747C93.5367 101.56 93.8234 101.42 93.9167 101.327L94.0167 101.427C94.0167 101.454 93.9634 101.514 93.8567 101.607C93.7501 101.7 93.4634 101.834 92.9967 102.007C92.5301 102.18 92.0901 102.274 91.6767 102.287C91.4634 102.847 91.0901 103.34 90.5567 103.767C90.0234 104.18 89.4701 104.387 88.8967 104.387C88.1101 104.387 87.7167 104.094 87.7167 103.507ZM90.7145 107.807C90.3412 107.954 90.0412 108.14 89.8145 108.367C89.5745 108.607 89.4545 108.78 89.4545 108.887C89.4545 109.007 89.4945 109.067 89.5745 109.067C89.8545 109.067 90.1079 108.94 90.3345 108.687C90.5479 108.434 90.6745 108.14 90.7145 107.807ZM88.8745 106.147C87.7812 106.147 86.7279 106.46 85.7145 107.087C84.7012 107.727 84.1945 108.42 84.1945 109.167C84.1945 109.594 84.4345 109.807 84.9145 109.807C85.8879 109.807 87.4612 108.614 89.6345 106.227C89.4345 106.174 89.1812 106.147 88.8745 106.147ZM96.2545 101.347C96.2545 101.694 95.9679 102.154 95.3945 102.727C94.8345 103.3 94.5545 103.66 94.5545 103.807C94.5545 103.94 94.6479 104.007 94.8345 104.007C95.2212 104.007 95.7679 103.687 96.4745 103.047C96.5145 102.994 96.5545 102.967 96.5945 102.967C96.6479 102.967 96.6745 103 96.6745 103.067C96.6745 103.227 96.4012 103.48 95.8545 103.827C95.3212 104.174 94.8412 104.347 94.4145 104.347C94.1212 104.347 93.9745 104.194 93.9745 103.887C93.9745 103.647 94.2679 103.24 94.8545 102.667C95.4545 102.094 95.7545 101.707 95.7545 101.507C95.7545 101.307 95.6345 101.207 95.3945 101.207C94.9812 101.194 94.5745 101.3 94.1745 101.527L93.9945 101.627C93.8879 101.747 93.3879 102.354 92.4945 103.447C91.6145 104.54 90.8545 105.447 90.2145 106.167C90.7745 106.434 91.0545 106.867 91.0545 107.467V107.507C91.4279 107.414 91.7945 107.367 92.1545 107.367C92.5145 107.367 92.8279 107.44 93.0945 107.587C93.3612 107.747 93.4945 107.94 93.4945 108.167C93.4945 108.207 93.4745 108.26 93.4345 108.327C93.4079 108.394 93.3545 108.427 93.2745 108.427C93.1945 108.427 93.1279 108.374 93.0745 108.267C93.0345 108.16 92.9745 108.06 92.8945 107.967C92.6812 107.714 92.3879 107.587 92.0145 107.587C91.6412 107.587 91.3212 107.627 91.0545 107.707C90.9879 108.16 90.7812 108.554 90.4345 108.887C90.0745 109.234 89.6545 109.407 89.1745 109.407C88.9745 109.407 88.8745 109.327 88.8745 109.167C88.8745 108.954 89.0545 108.68 89.4145 108.347C89.7612 108.027 90.1945 107.774 90.7145 107.587C90.7145 107.027 90.4812 106.627 90.0145 106.387C87.7479 108.854 86.0145 110.087 84.8145 110.087C84.0412 110.087 83.6545 109.834 83.6545 109.327C83.6545 108.474 84.2545 107.687 85.4545 106.967C86.6412 106.26 87.7745 105.907 88.8545 105.907C89.2279 105.907 89.5545 105.947 89.8345 106.027C90.9412 104.787 92.1945 103.274 93.5945 101.487C95.0079 99.7004 95.7879 98.7138 95.9345 98.5271C96.0812 98.3404 96.2145 98.2471 96.3345 98.2471C96.4545 98.2471 96.5145 98.3071 96.5145 98.4271C96.5145 98.4938 96.4812 98.5738 96.4145 98.6671C95.0679 100.28 94.3945 101.107 94.3945 101.147C94.4479 101.094 94.6279 101.027 94.9345 100.947C95.2412 100.867 95.4745 100.827 95.6345 100.827C96.0479 100.827 96.2545 101 96.2545 101.347Z" fill="#D0D0D0"/>
<rect x="28" y="59.7227" width="91.8812" height="1.14851" fill="#D0D0D0"/>
<rect x="57" y="114.852" width="34.4554" height="1.14851" fill="#D0D0D0"/>
</svg>
